<svg width="231" height="226" viewBox="0 0 231 226" fill="none" xmlns="http://www.w3.org/2000/svg">
<line x1="68" y1="159.058" x2="109" y2="159.058" stroke="#231421"/>
<line x1="126" y1="159.058" x2="167" y2="159.058" stroke="#231421"/>
<path d="M117.22 156.291C117.318 156.034 117.682 156.034 117.78 156.291L118.557 158.324C118.599 158.435 118.703 158.511 118.822 158.517L120.996 158.627C121.271 158.641 121.383 158.988 121.169 159.16L119.475 160.527C119.383 160.602 119.343 160.724 119.374 160.839L119.941 162.94C120.012 163.206 119.718 163.42 119.487 163.27L117.664 162.082C117.564 162.017 117.436 162.017 117.336 162.082L115.513 163.27C115.282 163.42 114.988 163.206 115.059 162.94L115.626 160.839C115.657 160.724 115.617 160.602 115.525 160.527L113.831 159.16C113.617 158.988 113.729 158.641 114.004 158.627L116.178 158.517C116.297 158.511 116.401 158.435 116.443 158.324L117.22 156.291Z" fill="#231421"/>
<path d="M68.2056 216.874C68.2056 216.874 78.3234 222.37 91.1031 204.618C74.9832 198.882 68.2056 216.874 68.2056 216.874Z" fill="#231421"/>
<path d="M49.1689 205.688C49.1689 205.688 57.5681 213.563 74.4214 199.62C60.2758 189.995 49.1689 205.688 49.1689 205.688Z" fill="#231421"/>
<path d="M81.133 180.579C81.133 180.579 92.5719 181.892 92.8349 203.764C76.3454 199.199 81.133 180.579 81.133 180.579Z" fill="#231421"/>
<path d="M68.8532 174.608C68.8532 174.608 80.039 177.338 77.5732 199.072C61.7815 192.486 68.8532 174.608 68.8532 174.608Z" fill="#231421"/>
<path d="M31.734 193.8C31.734 193.8 39.1466 202.611 57.5256 190.751C44.6128 179.525 31.734 193.8 31.734 193.8Z" fill="#231421"/>
<path d="M18.0963 176.435C18.0963 176.435 23.0401 186.834 43.8208 180.007C34.1662 165.881 18.0963 176.435 18.0963 176.435Z" fill="#231421"/>
<path d="M57.0211 164.73C57.0211 164.73 67.1906 170.13 59.4497 190.588C45.7654 180.317 57.0211 164.73 57.0211 164.73Z" fill="#231421"/>
<path d="M47.77 154.689C47.77 154.689 57.1869 161.315 46.9558 180.648C34.6588 168.751 47.77 154.689 47.77 154.689Z" fill="#231421"/>
<path d="M11.3751 162.379C11.3751 162.379 15.4198 172.069 34.6497 166.766C26.4783 153.474 11.3751 162.379 11.3751 162.379Z" fill="#231421"/>
<path d="M4.24724 143.548C4.24724 143.548 5.71013 153.946 25.6559 153.679C21.1115 138.752 4.24724 143.548 4.24724 143.548Z" fill="#231421"/>
<path d="M41.3143 143.989C41.3143 143.989 48.689 151.464 36.3684 167.152C27.2652 154.479 41.3143 143.989 41.3143 143.989Z" fill="#231421"/>
<path d="M36.0053 132.726C36.0053 132.726 42.3906 141.061 28.2103 155.091C20.758 141.382 36.0053 132.726 36.0053 132.726Z" fill="#231421"/>
<path d="M3.14633 128.222C3.14633 128.222 4.13032 137.204 21.293 137.5C17.778 124.541 3.14633 128.222 3.14633 128.222Z" fill="#231421"/>
<path d="M1.8391 110.945C1.8391 110.945 0.519816 119.883 17.0498 124.51C16.926 111.083 1.8391 110.945 1.8391 110.945Z" fill="#231421"/>
<path d="M31.3287 120.317C31.3287 120.317 35.6 128.28 21.617 138.236C17.1821 125.562 31.3287 120.317 31.3287 120.317Z" fill="#231421"/>
<path d="M30.6847 109.73C30.6847 109.73 33.93 118.163 18.8149 126.298C15.9947 113.17 30.6847 109.73 30.6847 109.73Z" fill="#231421"/>
<path d="M3.81928 98.605C3.81928 98.605 2.64608 106.419 17.0906 110.5C17.0117 98.7594 3.81928 98.605 3.81928 98.605Z" fill="#231421"/>
<path d="M6.57064 83.7059C6.57064 83.7059 3.4597 90.969 16.4026 98.5707C19.2952 87.1913 6.57064 83.7059 6.57064 83.7059Z" fill="#231421"/>
<path d="M30.2568 98.436C30.2568 98.436 32.0906 106.122 18.0457 111.418C17.1253 99.7124 30.2568 98.436 30.2568 98.436Z" fill="#231421"/>
<path d="M31.231 89.1178C31.231 89.1178 32.0923 96.9719 17.4967 100.476C18.0429 88.747 31.231 89.1178 31.231 89.1178Z" fill="#231421"/>
<path d="M10.5879 69.7399C10.5879 69.7399 7.3592 76.6649 19.6368 84.4077C22.7803 73.4974 10.5879 69.7399 10.5879 69.7399Z" fill="#231421"/>
<path d="M17.2225 56.6765C17.2225 56.6765 12.3476 62.56 22.2682 73.1558C28.0685 63.3951 17.2225 56.6765 17.2225 56.6765Z" fill="#231421"/>
<path d="M35.152 76.8267C35.152 76.8267 34.7471 84.4567 20.2709 85.5203C22.6242 74.4128 35.152 76.8267 35.152 76.8267Z" fill="#231421"/>
<path d="M38.607 68.4519C38.607 68.4519 37.254 75.9719 22.7581 75.2225C26.4779 64.495 38.607 68.4519 38.607 68.4519Z" fill="#231421"/>
<path d="M24.0847 44.5845C24.0847 44.5845 19.0642 50.4607 28.9362 61.3293C34.9519 51.5456 24.0847 44.5845 24.0847 44.5845Z" fill="#231421"/>
<path d="M34.0856 33.6455C34.0856 33.6455 27.7423 38.0611 34.5451 51.0728C42.8393 43.1284 34.0856 33.6455 34.0856 33.6455Z" fill="#231421"/>
<path d="M45.1114 57.136C45.1114 57.136 42.6524 64.4633 28.2549 61.5835C33.5538 51.3938 45.1114 57.136 45.1114 57.136Z" fill="#231421"/>
<path d="M50.7451 49.9083C50.7451 49.9083 47.3918 56.8718 33.4657 52.2195C39.9936 42.7699 50.7451 49.9083 50.7451 49.9083Z" fill="#231421"/>
<path d="M42.1611 20.947C42.1611 20.947 36.2741 25.9549 44.3023 38.2484C51.7901 29.5397 42.1611 20.947 42.1611 20.947Z" fill="#231421"/>
<path d="M53.7668 11.7288C53.7668 11.7288 46.8047 15.0852 51.4633 29.0093C60.9099 22.4771 53.7668 11.7288 53.7668 11.7288Z" fill="#231421"/>
<path d="M61.7657 37.8142C61.7657 37.8142 58.1784 44.6602 44.4178 39.5388C51.2621 30.3157 61.7657 37.8142 61.7657 37.8142Z" fill="#231421"/>
<path d="M68.471 31.568C68.471 31.568 64.0582 37.9133 51.0435 31.1163C58.9843 22.8185 68.471 31.568 68.471 31.568Z" fill="#231421"/>
<path d="M66.8595 8.03542C66.8595 8.03542 60.7787 10.7051 64.354 22.8041C72.6654 17.4832 66.8595 8.03542 66.8595 8.03542Z" fill="#231421"/>
<path d="M78.6865 3.31027C78.6865 3.31027 72.1282 4.3555 72.5278 16.9654C81.9145 13.9192 78.6865 3.31027 78.6865 3.31027Z" fill="#231421"/>
<path d="M78.8346 26.7554C78.8346 26.7554 74.1932 31.5054 64.1304 23.8955C72.039 17.9925 78.8346 26.7554 78.8346 26.7554Z" fill="#231421"/>
<path d="M85.8951 23.2684C85.8951 23.2684 80.6977 27.4026 71.6621 18.5976C80.245 13.7267 85.8951 23.2684 85.8951 23.2684Z" fill="#231421"/>
<path d="M86.6939 2.46239C86.6939 2.46239 81.4525 3.84137 82.7963 14.0494C90.173 10.8168 86.6939 2.46239 86.6939 2.46239Z" fill="#231421"/>
<path d="M96.8277 0.156698C96.8277 0.156698 91.4079 0.165432 90.1267 10.3815C98.0811 9.11936 96.8277 0.156698 96.8277 0.156698Z" fill="#231421"/>
<path d="M108.99 7.24967C108.99 7.24967 105.186 3.38941 96.9999 9.63469C103.475 14.4246 108.99 7.24967 108.99 7.24967Z" fill="#231421"/>
<path d="M93.9668 19.0742C93.9668 19.0742 89.6213 22.3132 82.4769 14.8992C89.6028 11.1461 93.9668 19.0742 93.9668 19.0742Z" fill="#231421"/>
<path d="M100.103 17.1624C100.103 17.1624 95.388 19.8343 89.2236 11.5874C96.7619 8.75199 100.103 17.1624 100.103 17.1624Z" fill="#231421"/>
<path d="M98.0009 9.05786L98.5009 10.0579C6.00082 33.0579 4.00082 135.558 40.5008 171.058C93.0008 221.558 89.5009 186.558 135.001 221.558L131.001 225.558C94.5009 193.558 82.0008 221.058 37.0008 173.058C-19.4992 100.558 41.5008 16.0579 98.0009 9.05786Z" fill="#231421"/>
<path d="M162.794 216.874C162.794 216.874 152.677 222.37 139.897 204.618C156.017 198.882 162.794 216.874 162.794 216.874Z" fill="#231421"/>
<path d="M181.831 205.688C181.831 205.688 173.432 213.563 156.579 199.62C170.724 189.995 181.831 205.688 181.831 205.688Z" fill="#231421"/>
<path d="M149.867 180.579C149.867 180.579 138.428 181.892 138.165 203.764C154.655 199.199 149.867 180.579 149.867 180.579Z" fill="#231421"/>
<path d="M162.147 174.608C162.147 174.608 150.961 177.338 153.427 199.072C169.219 192.486 162.147 174.608 162.147 174.608Z" fill="#231421"/>
<path d="M199.266 193.8C199.266 193.8 191.853 202.611 173.474 190.751C186.387 179.525 199.266 193.8 199.266 193.8Z" fill="#231421"/>
<path d="M212.904 176.435C212.904 176.435 207.96 186.834 187.179 180.007C196.834 165.881 212.904 176.435 212.904 176.435Z" fill="#231421"/>
<path d="M173.979 164.73C173.979 164.73 163.809 170.13 171.55 190.588C185.235 180.317 173.979 164.73 173.979 164.73Z" fill="#231421"/>
<path d="M183.23 154.689C183.23 154.689 173.813 161.315 184.044 180.648C196.341 168.751 183.23 154.689 183.23 154.689Z" fill="#231421"/>
<path d="M219.625 162.379C219.625 162.379 215.58 172.069 196.35 166.766C204.522 153.474 219.625 162.379 219.625 162.379Z" fill="#231421"/>
<path d="M226.753 143.548C226.753 143.548 225.29 153.946 205.344 153.679C209.889 138.752 226.753 143.548 226.753 143.548Z" fill="#231421"/>
<path d="M189.686 143.989C189.686 143.989 182.311 151.464 194.632 167.152C203.735 154.479 189.686 143.989 189.686 143.989Z" fill="#231421"/>
<path d="M194.995 132.726C194.995 132.726 188.609 141.061 202.79 155.091C210.242 141.382 194.995 132.726 194.995 132.726Z" fill="#231421"/>
<path d="M227.854 128.222C227.854 128.222 226.87 137.204 209.707 137.5C213.222 124.541 227.854 128.222 227.854 128.222Z" fill="#231421"/>
<path d="M229.161 110.945C229.161 110.945 230.48 119.883 213.95 124.51C214.074 111.083 229.161 110.945 229.161 110.945Z" fill="#231421"/>
<path d="M199.671 120.317C199.671 120.317 195.4 128.28 209.383 138.236C213.818 125.562 199.671 120.317 199.671 120.317Z" fill="#231421"/>
<path d="M200.315 109.73C200.315 109.73 197.07 118.163 212.185 126.298C215.005 113.17 200.315 109.73 200.315 109.73Z" fill="#231421"/>
<path d="M227.181 98.605C227.181 98.605 228.354 106.419 213.909 110.5C213.988 98.7594 227.181 98.605 227.181 98.605Z" fill="#231421"/>
<path d="M224.429 83.7059C224.429 83.7059 227.54 90.969 214.597 98.5707C211.705 87.1913 224.429 83.7059 224.429 83.7059Z" fill="#231421"/>
<path d="M200.743 98.436C200.743 98.436 198.909 106.122 212.954 111.418C213.875 99.7124 200.743 98.436 200.743 98.436Z" fill="#231421"/>
<path d="M199.769 89.1178C199.769 89.1178 198.908 96.9719 213.503 100.476C212.957 88.747 199.769 89.1178 199.769 89.1178Z" fill="#231421"/>
<path d="M220.412 69.7399C220.412 69.7399 223.641 76.6649 211.363 84.4077C208.22 73.4974 220.412 69.7399 220.412 69.7399Z" fill="#231421"/>
<path d="M213.777 56.6765C213.777 56.6765 218.652 62.56 208.732 73.1558C202.932 63.3951 213.777 56.6765 213.777 56.6765Z" fill="#231421"/>
<path d="M195.848 76.8267C195.848 76.8267 196.253 84.4567 210.729 85.5203C208.376 74.4128 195.848 76.8267 195.848 76.8267Z" fill="#231421"/>
<path d="M192.393 68.4519C192.393 68.4519 193.746 75.9719 208.242 75.2225C204.522 64.495 192.393 68.4519 192.393 68.4519Z" fill="#231421"/>
<path d="M206.915 44.5845C206.915 44.5845 211.936 50.4607 202.064 61.3293C196.048 51.5456 206.915 44.5845 206.915 44.5845Z" fill="#231421"/>
<path d="M196.914 33.6455C196.914 33.6455 203.258 38.0611 196.455 51.0728C188.161 43.1284 196.914 33.6455 196.914 33.6455Z" fill="#231421"/>
<path d="M185.889 57.136C185.889 57.136 188.348 64.4633 202.745 61.5835C197.446 51.3938 185.889 57.136 185.889 57.136Z" fill="#231421"/>
<path d="M180.255 49.9083C180.255 49.9083 183.608 56.8718 197.534 52.2195C191.006 42.7699 180.255 49.9083 180.255 49.9083Z" fill="#231421"/>
<path d="M188.839 21.947C188.839 21.947 194.726 26.9549 186.698 39.2484C179.21 30.5397 188.839 21.947 188.839 21.947Z" fill="#231421"/>
<path d="M176.233 13.7288C176.233 13.7288 183.195 17.0852 178.537 31.0093C169.09 24.4771 176.233 13.7288 176.233 13.7288Z" fill="#231421"/>
<path d="M169.234 37.8142C169.234 37.8142 172.822 44.6602 186.582 39.5388C179.738 30.3157 169.234 37.8142 169.234 37.8142Z" fill="#231421"/>
<path d="M161.529 31.568C161.529 31.568 165.942 37.9133 178.957 31.1163C171.016 22.8185 161.529 31.568 161.529 31.568Z" fill="#231421"/>
<path d="M164.14 8.03542C164.14 8.03542 170.221 10.7051 166.646 22.8041C158.335 17.4832 164.14 8.03542 164.14 8.03542Z" fill="#231421"/>
<path d="M152.314 3.31027C152.314 3.31027 158.872 4.3555 158.472 16.9654C149.085 13.9192 152.314 3.31027 152.314 3.31027Z" fill="#231421"/>
<path d="M152.165 26.7554C152.165 26.7554 156.807 31.5054 166.87 23.8955C158.961 17.9925 152.165 26.7554 152.165 26.7554Z" fill="#231421"/>
<path d="M145.105 23.2684C145.105 23.2684 150.302 27.4026 159.338 18.5976C150.755 13.7267 145.105 23.2684 145.105 23.2684Z" fill="#231421"/>
<path d="M144.306 2.46239C144.306 2.46239 149.548 3.84137 148.204 14.0494C140.827 10.8168 144.306 2.46239 144.306 2.46239Z" fill="#231421"/>
<path d="M134.172 0.156698C134.172 0.156698 139.592 0.165432 140.873 10.3815C132.919 9.11936 134.172 0.156698 134.172 0.156698Z" fill="#231421"/>
<path d="M122.01 7.24967C122.01 7.24967 125.814 3.38941 134 9.63469C127.525 14.4246 122.01 7.24967 122.01 7.24967Z" fill="#231421"/>
<path d="M137.033 19.0742C137.033 19.0742 141.379 22.3132 148.523 14.8992C141.397 11.1461 137.033 19.0742 137.033 19.0742Z" fill="#231421"/>
<path d="M130.897 17.1624C130.897 17.1624 135.612 19.8343 141.776 11.5874C134.238 8.75199 130.897 17.1624 130.897 17.1624Z" fill="#231421"/>
<path d="M132.999 9.05786L132.499 10.0579C224.999 33.0579 226.999 135.558 190.499 171.058C137.999 221.558 141.499 186.558 95.9991 221.558L99.9991 225.558C136.499 193.558 148.999 221.058 193.999 173.058C250.499 100.558 189.499 16.0579 132.999 9.05786Z" fill="#231421"/>
<path fill-rule="evenodd" clip-rule="evenodd" d="M108 37.6667C108 37.4899 108.07 37.3203 108.195 37.1953C108.32 37.0702 108.49 37 108.667 37H123.333C123.51 37 123.68 37.0702 123.805 37.1953C123.93 37.3203 124 37.4899 124 37.6667V38.3333H127.333C127.51 38.3333 127.68 38.4036 127.805 38.5286C127.93 38.6536 128 38.8232 128 39V43C128 43.8841 127.649 44.7319 127.024 45.357C126.399 45.9821 125.551 46.3333 124.667 46.3333H123.545C122.517 49.24 119.858 51.376 116.667 51.6393V55.6667H121.333C121.51 55.6667 121.68 55.7369 121.805 55.8619C121.93 55.987 122 56.1565 122 56.3333V60.3333C122 60.5101 121.93 60.6797 121.805 60.8047C121.68 60.9298 121.51 61 121.333 61H110.667C110.49 61 110.32 60.9298 110.195 60.8047C110.07 60.6797 110 60.5101 110 60.3333V56.3333C110 56.1565 110.07 55.987 110.195 55.8619C110.32 55.7369 110.49 55.6667 110.667 55.6667H115.333V51.6393C112.143 51.376 109.483 49.24 108.455 46.3333H107.333C106.449 46.3333 105.601 45.9821 104.976 45.357C104.351 44.7319 104 43.8841 104 43V39C104 38.8232 104.07 38.6536 104.195 38.5286C104.32 38.4036 104.49 38.3333 104.667 38.3333H108V37.6667ZM122.667 43.6667V38.3333H109.333V43.6667C109.333 47.3487 112.318 50.3333 116 50.3333C119.682 50.3333 122.667 47.3487 122.667 43.6667ZM124 39.6667V45H124.667C125.197 45 125.706 44.7893 126.081 44.4142C126.456 44.0391 126.667 43.5304 126.667 43V39.6667H124ZM105.333 39.6667H108V45H107.333C106.803 45 106.294 44.7893 105.919 44.4142C105.544 44.0391 105.333 43.5304 105.333 43V39.6667ZM111.333 57V59.6667H120.667V57H111.333Z" fill="#231421"/>
<path d="M91.2699 92.9433H92.7579V103.999H90.9019V95.9833C90.2459 96.6233 89.5099 96.6233 88.5819 96.6233V95.2953C90.5819 95.2953 91.1579 94.3033 91.2699 92.9433ZM98.9857 104.239C95.8657 104.239 94.5377 101.615 94.5377 98.4793C94.5377 95.3433 95.8657 92.7033 98.9857 92.7033C102.106 92.7033 103.434 95.3433 103.434 98.4793C103.434 101.615 102.106 104.239 98.9857 104.239ZM98.9857 102.655C100.938 102.655 101.578 100.783 101.578 98.4793C101.578 96.1753 100.938 94.2873 98.9857 94.2873C97.0337 94.2873 96.3777 96.1753 96.3777 98.4793C96.3777 100.783 97.0337 102.655 98.9857 102.655ZM107.735 99.5513H104.807V97.9833H107.735V94.9593H109.303V97.9833H112.231V99.5513H109.303V102.575H107.735V99.5513ZM125.655 95.4393C125.655 96.8473 124.823 97.5033 123.879 97.8233V97.8553C125.079 98.0633 126.103 98.9433 126.103 100.655C126.103 102.863 124.583 103.999 122.215 103.999H117.031V92.5593H121.943C124.295 92.5593 125.655 93.5993 125.655 95.4393ZM118.935 97.2953H121.879C123.239 97.2953 123.751 96.7513 123.751 95.7433C123.751 94.7353 123.127 94.1753 121.991 94.1753H118.935V97.2953ZM118.935 98.7193V102.383H122.071C123.703 102.383 124.199 101.615 124.199 100.543C124.199 99.3753 123.479 98.7193 122.279 98.7193H118.935ZM130.924 102.863C132.316 102.863 132.876 101.999 133.02 101.503H134.7C134.284 103.055 133.068 104.239 130.972 104.239C128.428 104.239 126.876 102.479 126.876 99.9193C126.876 97.2633 128.428 95.5993 130.892 95.5993C133.532 95.5993 134.828 97.4393 134.828 100.351H128.556C128.556 101.727 129.436 102.863 130.924 102.863ZM130.892 96.9273C129.532 96.9273 128.556 97.8393 128.556 99.1033H133.148C133.148 97.8393 132.252 96.9273 130.892 96.9273ZM139.516 99.0553C141.02 99.4073 142.652 99.7433 142.652 101.695C142.652 103.263 141.308 104.239 139.324 104.239C136.684 104.239 135.548 103.007 135.468 101.279H137.1C137.18 102.159 137.564 102.911 139.292 102.911C140.46 102.911 140.956 102.335 140.956 101.823C140.956 100.799 139.98 100.719 138.78 100.431C137.484 100.127 135.724 99.8713 135.724 98.0153C135.724 96.6713 136.908 95.5993 138.956 95.5993C141.18 95.5993 142.236 96.7993 142.348 98.2233H140.716C140.604 97.5833 140.284 96.9273 138.972 96.9273C137.964 96.9273 137.42 97.3113 137.42 97.8873C137.42 98.7193 138.332 98.7833 139.516 99.0553ZM147.493 97.1993H145.957V101.631C145.957 102.559 146.405 102.671 147.493 102.607V103.983C147.157 104.063 146.789 104.111 146.341 104.111C144.997 104.111 144.261 103.503 144.261 101.775V97.1993H143.077V95.8233H144.261V93.2473H145.957V95.8233H147.493V97.1993Z" fill="#C8E0F7"/>
<path d="M62.16 116.559H64.112L66.064 125.423H66.096L68.4 116.559H70.352L72.672 125.423H72.704L74.656 116.559H76.608L73.744 127.999H71.744L69.392 119.039H69.36L67.024 127.999H65.008L62.16 116.559ZM80.3223 126.863C81.7143 126.863 82.2743 125.999 82.4183 125.503H84.0983C83.6823 127.055 82.4663 128.239 80.3703 128.239C77.8263 128.239 76.2743 126.479 76.2743 123.919C76.2743 121.263 77.8263 119.599 80.2903 119.599C82.9303 119.599 84.2263 121.439 84.2263 124.351H77.9543C77.9543 125.727 78.8343 126.863 80.3223 126.863ZM80.2903 120.927C78.9303 120.927 77.9543 121.839 77.9543 123.103H82.5463C82.5463 121.839 81.6503 120.927 80.2903 120.927ZM89.5861 119.599C91.6821 119.599 93.2341 121.231 93.2341 123.919C93.2341 126.607 91.6821 128.239 89.5861 128.239C88.3221 128.239 87.5221 127.615 87.0901 127.055H87.0581V127.999H85.3781V116.559H87.0581V120.815H87.0901C87.5221 120.191 88.3221 119.599 89.5861 119.599ZM89.2981 126.863C90.7701 126.863 91.5541 125.519 91.5541 123.919C91.5541 122.319 90.7701 120.975 89.2981 120.975C87.9221 120.975 87.0741 122.095 87.0741 123.919C87.0741 125.727 87.9221 126.863 89.2981 126.863ZM97.9454 123.055C99.4494 123.407 101.081 123.743 101.081 125.695C101.081 127.263 99.7374 128.239 97.7534 128.239C95.1134 128.239 93.9774 127.007 93.8974 125.279H95.5294C95.6094 126.159 95.9934 126.911 97.7214 126.911C98.8894 126.911 99.3854 126.335 99.3854 125.823C99.3854 124.799 98.4094 124.719 97.2094 124.431C95.9134 124.127 94.1534 123.871 94.1534 122.015C94.1534 120.671 95.3374 119.599 97.3854 119.599C99.6094 119.599 100.665 120.799 100.777 122.223H99.1454C99.0334 121.583 98.7134 120.927 97.4014 120.927C96.3934 120.927 95.8494 121.311 95.8494 121.887C95.8494 122.719 96.7614 122.783 97.9454 123.055ZM103.15 118.447C102.686 118.447 102.206 118.127 102.206 117.551C102.206 116.975 102.686 116.671 103.15 116.671C103.646 116.671 104.11 116.975 104.11 117.551C104.11 118.127 103.646 118.447 103.15 118.447ZM102.318 119.823H103.998V127.999H102.318V119.823ZM109.61 121.199H108.074V125.631C108.074 126.559 108.522 126.671 109.61 126.607V127.983C109.274 128.063 108.906 128.111 108.458 128.111C107.114 128.111 106.378 127.503 106.378 125.775V121.199H105.194V119.823H106.378V117.247H108.074V119.823H109.61V121.199ZM114.369 126.863C115.761 126.863 116.321 125.999 116.465 125.503H118.145C117.729 127.055 116.513 128.239 114.417 128.239C111.873 128.239 110.321 126.479 110.321 123.919C110.321 121.263 111.873 119.599 114.337 119.599C116.977 119.599 118.273 121.439 118.273 124.351H112.001C112.001 125.727 112.881 126.863 114.369 126.863ZM114.337 120.927C112.977 120.927 112.001 121.839 112.001 123.103H116.593C116.593 121.839 115.697 120.927 114.337 120.927ZM130.616 120.495C130.408 119.343 129.656 117.951 127.544 117.951C125.08 117.951 124.104 120.015 124.104 122.271C124.104 124.543 125.08 126.607 127.544 126.607C129.672 126.607 130.488 125.215 130.616 123.823H132.52C132.264 126.399 130.504 128.239 127.592 128.239C124.296 128.239 122.216 125.727 122.216 122.271C122.216 118.831 124.296 116.319 127.592 116.319C130.488 116.319 132.248 118.159 132.52 120.495H130.616ZM137.641 119.631C137.929 119.631 138.137 119.647 138.377 119.679V121.263H138.345C136.729 120.991 135.433 122.079 135.433 123.823V127.999H133.753V119.823H135.433V121.359H135.465C135.897 120.335 136.569 119.631 137.641 119.631ZM142.807 126.863C144.199 126.863 144.759 125.999 144.903 125.503H146.583C146.167 127.055 144.951 128.239 142.855 128.239C140.311 128.239 138.759 126.479 138.759 123.919C138.759 121.263 140.311 119.599 142.775 119.599C145.415 119.599 146.711 121.439 146.711 124.351H140.439C140.439 125.727 141.319 126.863 142.807 126.863ZM142.775 120.927C141.415 120.927 140.439 121.839 140.439 123.103H145.031C145.031 121.839 144.135 120.927 142.775 120.927ZM152.807 121.967C152.807 121.375 152.455 120.927 151.335 120.927C149.991 120.927 149.495 121.343 149.414 122.399H147.783C147.863 120.831 148.871 119.599 151.335 119.599C153.143 119.599 154.487 120.287 154.487 122.463V126.351C154.487 126.927 154.615 127.231 155.271 127.167V127.967C154.887 128.111 154.615 128.143 154.295 128.143C153.399 128.143 152.983 127.823 152.823 127.023H152.791C152.279 127.743 151.351 128.239 150.087 128.239C148.423 128.239 147.399 127.279 147.399 125.903C147.399 124.111 148.727 123.551 150.775 123.151C152.039 122.911 152.807 122.751 152.807 121.967ZM150.455 126.911C151.847 126.911 152.807 126.223 152.807 124.895V123.663C152.535 123.855 151.879 124.047 151.095 124.207C149.703 124.511 149.095 124.911 149.095 125.743C149.095 126.495 149.543 126.911 150.455 126.911ZM160.001 121.199H158.465V125.631C158.465 126.559 158.913 126.671 160.001 126.607V127.983C159.665 128.063 159.297 128.111 158.849 128.111C157.505 128.111 156.769 127.503 156.769 125.775V121.199H155.585V119.823H156.769V117.247H158.465V119.823H160.001V121.199ZM164.824 128.239C162.264 128.239 160.712 126.463 160.712 123.919C160.712 121.375 162.264 119.599 164.824 119.599C167.384 119.599 168.936 121.375 168.936 123.919C168.936 126.463 167.384 128.239 164.824 128.239ZM164.824 126.863C166.424 126.863 167.256 125.599 167.256 123.919C167.256 122.223 166.424 120.975 164.824 120.975C163.224 120.975 162.392 122.223 162.392 123.919C162.392 125.599 163.224 126.863 164.824 126.863ZM173.985 119.631C174.273 119.631 174.481 119.647 174.721 119.679V121.263H174.689C173.073 120.991 171.777 122.079 171.777 123.823V127.999H170.097V119.823H171.777V121.359H171.809C172.241 120.335 172.913 119.631 173.985 119.631Z" fill="#C8E0F7"/>
<path d="M100.996 177.422H99.2044C99.2044 175.038 100.484 173.262 103.316 173.262C105.364 173.262 106.98 174.478 106.98 176.59C106.98 180.11 102.26 180.702 101.348 182.958V182.99H106.868V184.558H98.9324C98.9324 182.606 100.1 181.182 101.796 180.11C103.828 178.766 105.124 178.238 105.124 176.67C105.124 175.758 104.692 174.846 103.268 174.846C101.62 174.846 100.996 175.902 100.996 177.422ZM112.603 184.798C109.483 184.798 108.155 182.174 108.155 179.038C108.155 175.902 109.483 173.262 112.603 173.262C115.723 173.262 117.051 175.902 117.051 179.038C117.051 182.174 115.723 184.798 112.603 184.798ZM112.603 183.214C114.555 183.214 115.195 181.342 115.195 179.038C115.195 176.734 114.555 174.846 112.603 174.846C110.651 174.846 109.995 176.734 109.995 179.038C109.995 181.342 110.651 183.214 112.603 183.214ZM120.043 177.422H118.251C118.251 175.038 119.531 173.262 122.363 173.262C124.411 173.262 126.027 174.478 126.027 176.59C126.027 180.11 121.307 180.702 120.395 182.958V182.99H125.915V184.558H117.979C117.979 182.606 119.147 181.182 120.843 180.11C122.875 178.766 124.171 178.238 124.171 176.67C124.171 175.758 123.739 174.846 122.315 174.846C120.667 174.846 120.043 175.902 120.043 177.422ZM133.644 184.558H131.788V182.046H126.556V180.318L131.788 173.502H133.644V180.478H135.196V182.046H133.644V184.558ZM131.788 175.806L128.204 180.478H131.788V175.806Z" fill="#C8E0F7"/>
</svg>
