<svg width="48" height="48" viewBox="0 0 48 48" fill="none" xmlns="http://www.w3.org/2000/svg">
<path d="M24 33.614C24.0001 33.0598 24.1459 32.5153 24.4229 32.0353C24.6999 31.5552 25.0982 31.1564 25.578 30.879L42.973 20.824C43.1331 20.7314 43.266 20.5984 43.3584 20.4382C43.4508 20.2781 43.4995 20.0964 43.4995 19.9115C43.4995 19.7266 43.4508 19.5449 43.3584 19.3847C43.266 19.2246 43.1331 19.0915 42.973 18.999L25.578 8.94398C25.4181 8.85169 25.2368 8.80309 25.0522 8.80304C24.8677 8.80299 24.6863 8.85151 24.5264 8.94372C24.3666 9.03592 24.2337 9.16858 24.1413 9.32835C24.0489 9.48813 24.0002 9.66941 24 9.85398M24 33.614V38.146M24 33.614C23.9999 33.0598 23.8541 32.5153 23.5771 32.0353C23.3001 31.5552 22.9018 31.1564 22.422 30.879L5.02698 20.824C4.86689 20.7314 4.73397 20.5984 4.64155 20.4382C4.54914 20.2781 4.50049 20.0964 4.50049 19.9115C4.50049 19.7266 4.54914 19.5449 4.64155 19.3847C4.73397 19.2246 4.86689 19.0915 5.02698 18.999L22.422 8.94398C22.5818 8.85169 22.7631 8.80309 22.9477 8.80304C23.1323 8.80299 23.3136 8.85151 23.4735 8.94372C23.6334 9.03592 23.7662 9.16858 23.8586 9.32835C23.9511 9.48813 23.9998 9.66941 24 9.85398M24 38.146C24.0002 38.3306 24.0489 38.5118 24.1413 38.6716C24.2337 38.8314 24.3666 38.964 24.5264 39.0562C24.6863 39.1485 24.8677 39.197 25.0522 39.1969C25.2368 39.1969 25.4181 39.1483 25.578 39.056L32.848 34.854C33.3279 34.5766 33.7265 34.1779 34.0036 33.6979C34.2808 33.2178 34.4268 32.6733 34.427 32.119V27.486C34.427 26.9315 34.2811 26.3868 34.0039 25.9065C33.7267 25.4263 33.3281 25.0274 32.848 24.75L25.578 20.548C25.0981 20.2704 24.6996 19.8715 24.4226 19.3913C24.1457 18.911 23.9999 18.3664 24 17.812M24 38.146C23.9998 38.3306 23.9511 38.5118 23.8586 38.6716C23.7662 38.8314 23.6334 38.964 23.4735 39.0562C23.3136 39.1485 23.1323 39.197 22.9477 39.1969C22.7631 39.1969 22.5818 39.1483 22.422 39.056L15.152 34.854C14.672 34.5766 14.2735 34.1779 13.9963 33.6979C13.7192 33.2178 13.5732 32.6733 13.573 32.119V27.486C13.573 26.9315 13.7189 26.3868 13.9961 25.9065C14.2732 25.4263 14.6719 25.0274 15.152 24.75L22.422 20.548C22.9019 20.2704 23.3004 19.8715 23.5773 19.3913C23.8543 18.911 24.0001 18.3664 24 17.812M24 17.812V9.85398" stroke="black" stroke-width="0.5" stroke-linecap="round" stroke-linejoin="round"/>
</svg>
