<svg width="48" height="49" viewBox="0 0 48 49" fill="none" xmlns="http://www.w3.org/2000/svg">
<rect y="0.308594" width="48" height="48" rx="24" fill="#1B2D2B"/>
<path d="M25.3911 17.1344L32.1882 23.9314L25.3646 30.755C25.2052 30.9144 25.1157 31.1306 25.1157 31.356C25.1157 31.5815 25.2052 31.7977 25.3646 31.9571C25.524 32.1165 25.7402 32.206 25.9657 32.206C26.1911 32.206 26.4073 32.1165 26.5667 31.9571L33.9913 24.5325C34.1507 24.3731 34.2403 24.1569 34.2403 23.9314C34.2403 23.706 34.1507 23.4898 33.9913 23.3304L26.5932 15.9323C26.4338 15.7729 26.2176 15.6833 25.9922 15.6833C25.7668 15.6833 25.5506 15.7729 25.3911 15.9323C25.2317 16.0917 25.1422 16.3079 25.1422 16.5333C25.1422 16.7588 25.2317 16.975 25.3911 17.1344Z" fill="white" stroke="white" stroke-width="0.2"/>
<path d="M33.3906 23.0827L33.3906 23.1827L33.3906 23.0827L15.3594 23.0827C15.2476 23.0827 15.137 23.1048 15.0337 23.1475C14.9305 23.1903 14.8367 23.253 14.7577 23.332C14.6787 23.411 14.616 23.5048 14.5732 23.608C14.5305 23.7113 14.5084 23.8219 14.5084 23.9337C14.5084 24.0454 14.5305 24.1561 14.5732 24.2593C14.616 24.3626 14.6787 24.4564 14.7577 24.5354C14.8367 24.6144 14.9305 24.6771 15.0337 24.7199C15.137 24.7626 15.2476 24.7846 15.3594 24.7846L33.3906 24.7846C33.6163 24.7846 33.8327 24.695 33.9923 24.5354C34.1519 24.3758 34.2416 24.1594 34.2416 23.9337C34.2416 23.708 34.1519 23.4916 33.9923 23.332C33.8327 23.1724 33.6163 23.0827 33.3906 23.0827Z" fill="white" stroke="white" stroke-width="0.2"/>
</svg>
