<svg width="48" height="49" viewBox="0 0 48 49" fill="none" xmlns="http://www.w3.org/2000/svg">
<rect width="48" height="48" rx="24" transform="matrix(-1 0 0 1 48 0.308594)" fill="#1B2D2B"/>
<path d="M22.6089 17.1344L15.8118 23.9314L22.6354 30.755C22.7948 30.9144 22.8843 31.1306 22.8843 31.356C22.8843 31.5815 22.7948 31.7977 22.6354 31.9571C22.476 32.1165 22.2598 32.206 22.0343 32.206C21.8089 32.206 21.5927 32.1165 21.4333 31.9571L14.0087 24.5325C13.8493 24.3731 13.7597 24.1569 13.7597 23.9314C13.7597 23.706 13.8493 23.4898 14.0087 23.3304L21.4068 15.9323C21.5662 15.7729 21.7824 15.6833 22.0078 15.6833C22.2332 15.6833 22.4494 15.7729 22.6089 15.9323C22.7683 16.0917 22.8578 16.3079 22.8578 16.5333C22.8578 16.7588 22.7683 16.975 22.6089 17.1344Z" fill="white" stroke="white" stroke-width="0.2"/>
<path d="M14.6094 23.0827L14.6094 23.1827L14.6094 23.0827L32.6406 23.0827C32.7524 23.0827 32.863 23.1048 32.9663 23.1475C33.0695 23.1903 33.1633 23.253 33.2423 23.332C33.3213 23.411 33.384 23.5048 33.4268 23.608C33.4695 23.7113 33.4916 23.8219 33.4916 23.9337C33.4916 24.0454 33.4695 24.1561 33.4268 24.2593C33.384 24.3626 33.3213 24.4564 33.2423 24.5354C33.1633 24.6144 33.0695 24.6771 32.9663 24.7199C32.863 24.7626 32.7524 24.7846 32.6406 24.7846L14.6094 24.7846C14.3837 24.7846 14.1673 24.695 14.0077 24.5354C13.8481 24.3758 13.7584 24.1594 13.7584 23.9337C13.7584 23.708 13.8481 23.4916 14.0077 23.332C14.1673 23.1724 14.3837 23.0827 14.6094 23.0827Z" fill="white" stroke="white" stroke-width="0.2"/>
</svg>
