<svg width="48" height="49" viewBox="0 0 48 49" fill="none" xmlns="http://www.w3.org/2000/svg">
<rect x="-0.5" y="0.5" width="47" height="47" rx="23.5" transform="matrix(-1 0 0 1 47 0.308594)" stroke="#C8E0F7"/>
<path d="M22.6089 17.1344L15.8118 23.9314L22.6354 30.755C22.7948 30.9144 22.8843 31.1306 22.8843 31.356C22.8843 31.5815 22.7948 31.7977 22.6354 31.9571C22.476 32.1165 22.2598 32.206 22.0343 32.206C21.8089 32.206 21.5927 32.1165 21.4333 31.9571L14.0087 24.5325C13.8493 24.3731 13.7597 24.1569 13.7597 23.9314C13.7597 23.706 13.8493 23.4898 14.0087 23.3304L21.4068 15.9323C21.5662 15.7729 21.7824 15.6833 22.0078 15.6833C22.2332 15.6833 22.4494 15.7729 22.6089 15.9323C22.7683 16.0917 22.8578 16.3079 22.8578 16.5333C22.8578 16.7588 22.7683 16.975 22.6089 17.1344Z" fill="#C8E0F7" stroke="#C8E0F7" stroke-width="0.2"/>
<path d="M14.6094 23.0826L14.6094 23.1826L14.6094 23.0826L32.6406 23.0826C32.7524 23.0826 32.863 23.1046 32.9663 23.1474C33.0695 23.1902 33.1633 23.2528 33.2423 23.3319C33.3213 23.4109 33.384 23.5047 33.4268 23.6079C33.4695 23.7112 33.4916 23.8218 33.4916 23.9336C33.4916 24.0453 33.4695 24.156 33.4268 24.2592C33.384 24.3625 33.3213 24.4563 33.2423 24.5353C33.1633 24.6143 33.0695 24.677 32.9663 24.7197C32.863 24.7625 32.7524 24.7845 32.6406 24.7845L14.6094 24.7845C14.3837 24.7845 14.1673 24.6949 14.0077 24.5353C13.8481 24.3757 13.7584 24.1593 13.7584 23.9336C13.7584 23.7079 13.8481 23.4914 14.0077 23.3319C14.1673 23.1723 14.3837 23.0826 14.6094 23.0826Z" fill="#C8E0F7" stroke="#C8E0F7" stroke-width="0.2"/>
</svg>
