<svg width="48" height="49" viewBox="0 0 48 49" fill="none" xmlns="http://www.w3.org/2000/svg">
<rect x="0.5" y="0.808594" width="47" height="47" rx="23.5" stroke="#C8E0F7"/>
<path d="M25.3911 17.1344L32.1882 23.9314L25.3646 30.755C25.2052 30.9144 25.1157 31.1306 25.1157 31.356C25.1157 31.5815 25.2052 31.7977 25.3646 31.9571C25.524 32.1165 25.7402 32.206 25.9657 32.206C26.1911 32.206 26.4073 32.1165 26.5667 31.9571L33.9913 24.5325C34.1507 24.3731 34.2403 24.1569 34.2403 23.9314C34.2403 23.706 34.1507 23.4898 33.9913 23.3304L26.5932 15.9323C26.4338 15.7729 26.2176 15.6833 25.9922 15.6833C25.7668 15.6833 25.5506 15.7729 25.3911 15.9323C25.2317 16.0917 25.1422 16.3079 25.1422 16.5333C25.1422 16.7588 25.2317 16.975 25.3911 17.1344Z" fill="#C8E0F7" stroke="#C8E0F7" stroke-width="0.2"/>
<path d="M33.3906 23.0826L33.3906 23.1826L33.3906 23.0826L15.3594 23.0826C15.2476 23.0826 15.137 23.1046 15.0337 23.1474C14.9305 23.1902 14.8367 23.2528 14.7577 23.3319C14.6787 23.4109 14.616 23.5047 14.5732 23.6079C14.5305 23.7112 14.5084 23.8218 14.5084 23.9336C14.5084 24.0453 14.5305 24.156 14.5732 24.2592C14.616 24.3625 14.6787 24.4563 14.7577 24.5353C14.8367 24.6143 14.9305 24.677 15.0337 24.7197C15.137 24.7625 15.2476 24.7845 15.3594 24.7845L33.3906 24.7845C33.6163 24.7845 33.8327 24.6949 33.9923 24.5353C34.1519 24.3757 34.2416 24.1593 34.2416 23.9336C34.2416 23.7079 34.1519 23.4914 33.9923 23.3319C33.8327 23.1723 33.6163 23.0826 33.3906 23.0826Z" fill="#C8E0F7" stroke="#C8E0F7" stroke-width="0.2"/>
</svg>
