<svg width="109" height="45" viewBox="0 0 109 45" fill="none" xmlns="http://www.w3.org/2000/svg">
<path opacity="0.4" fill-rule="evenodd" clip-rule="evenodd" d="M7.03894 5.21381H7.47217V10.2685V34.8183V39.8723H7.03894V34.8183H4.58398V10.2685H7.03894V5.21381Z" fill="black"/>
<path opacity="0.6" fill-rule="evenodd" clip-rule="evenodd" d="M11.3673 5.21381H13.2446V10.2685V34.8183V39.8723H11.3673V34.8183H8.91235V10.2685H11.3673V5.21381Z" fill="black"/>
<path opacity="0.8" fill-rule="evenodd" clip-rule="evenodd" d="M17.1448 5.21381H19.4554V10.2685H20.4658V34.8183H19.4554V39.8723H17.1448V34.8183H14.6894V10.2685H17.1448V5.21381Z" fill="black"/>
<path fill-rule="evenodd" clip-rule="evenodd" d="M26.6711 5.21381H24.3605V10.2691H21.9106V34.8189H24.3605V39.8723H26.6711V34.8189H29.1311V10.2691H26.6711V5.21381Z" fill="black"/>
<path opacity="0.8" fill-rule="evenodd" clip-rule="evenodd" d="M33.8982 5.21381H31.5876V10.2685H30.5771V34.8183H31.5876V39.8723H33.8982V34.8183H36.3535V10.2685H33.8982V5.21381Z" fill="black"/>
<path opacity="0.6" fill-rule="evenodd" clip-rule="evenodd" d="M39.6757 5.21381H37.7983V10.2685V34.8183V39.8723H39.6757V34.8183H42.1306V10.2685H39.6757V5.21381Z" fill="black"/>
<path opacity="0.4" fill-rule="evenodd" clip-rule="evenodd" d="M43.9928 5.21381H43.5596V10.2685V34.8183V39.8723H43.9928V34.8183H46.4478V10.2685H43.9928V5.21381Z" fill="black"/>
<rect x="55.936" y="28.533" width="1.44328" height="5.05147" transform="rotate(90 55.936 28.533)" fill="black"/>
<rect x="57.3853" y="28.533" width="1.44328" height="5.05149" transform="rotate(-180 57.3853 28.533)" fill="black"/>
<rect x="63.877" y="28.533" width="1.44328" height="5.05149" transform="rotate(-180 63.877 28.533)" fill="black"/>
<rect x="57.3853" y="29.976" width="1.44328" height="5.05147" transform="rotate(-90 57.3853 29.976)" fill="black"/>
<rect x="55.936" y="29.976" width="1.44328" height="5.05149" fill="black"/>
<rect x="62.4277" y="29.976" width="1.44328" height="5.05149" fill="black"/>
<path fill-rule="evenodd" clip-rule="evenodd" d="M68.9216 33.7285C70.5158 33.7285 71.8082 32.4361 71.8082 30.8419C71.8082 29.2477 70.5158 27.9554 68.9216 27.9554C67.3274 27.9554 66.0351 29.2477 66.0351 30.8419C66.0351 32.4361 67.3274 33.7285 68.9216 33.7285ZM68.9216 35.1718C71.3129 35.1718 73.2515 33.2332 73.2515 30.8419C73.2515 28.4506 71.3129 26.5121 68.9216 26.5121C66.5303 26.5121 64.5918 28.4506 64.5918 30.8419C64.5918 33.2332 66.5303 35.1718 68.9216 35.1718Z" fill="black"/>
<path fill-rule="evenodd" clip-rule="evenodd" d="M92.0193 33.7285C93.6135 33.7285 94.9058 32.4361 94.9058 30.8419C94.9058 29.2477 93.6135 27.9554 92.0193 27.9554C90.4251 27.9554 89.1327 29.2477 89.1327 30.8419C89.1327 32.4361 90.4251 33.7285 92.0193 33.7285ZM92.0193 35.1718C94.4106 35.1718 96.3491 33.2332 96.3491 30.8419C96.3491 28.4506 94.4106 26.5121 92.0193 26.5121C89.628 26.5121 87.6895 28.4506 87.6895 30.8419C87.6895 33.2332 89.628 35.1718 92.0193 35.1718Z" fill="black"/>
<path d="M101.199 26.5121C102.172 26.5121 102.952 26.8217 103.538 27.4408C104.124 28.0489 104.417 28.8781 104.417 29.9285V35.0198H102.974V30.0114C102.974 29.3369 102.791 28.8173 102.427 28.4525C102.062 28.0765 101.559 27.8886 100.917 27.8886C100.199 27.8886 99.6183 28.1152 99.176 28.5685C98.7338 29.0108 98.5127 29.6963 98.5127 30.625V35.0198H97.0698V26.7277H98.5127V27.9218C99.0986 26.982 99.9942 26.5121 101.199 26.5121Z" fill="black"/>
<path d="M83.3334 33.7161H87.7448V35.0926H81.3599V34.1307L85.5888 28.177H81.5257V26.8005H87.579V27.7624L83.3334 33.7161Z" fill="black"/>
<path d="M79.7358 25.2769C79.4594 25.2769 79.2272 25.1829 79.0393 24.995C78.8513 24.807 78.7573 24.5804 78.7573 24.315C78.7573 24.0497 78.8513 23.823 79.0393 23.6351C79.2272 23.4361 79.4594 23.3365 79.7358 23.3365C80.0011 23.3365 80.2278 23.4361 80.4157 23.6351C80.6037 23.823 80.6977 24.0497 80.6977 24.315C80.6977 24.5804 80.6037 24.807 80.4157 24.995C80.2278 25.1829 80.0011 25.2769 79.7358 25.2769ZM79.0061 35.0783V26.7861H80.4489V35.0783H79.0061Z" fill="black"/>
<path d="M75.4243 28.198C75.8997 27.1698 76.7621 26.6557 78.0114 26.6557V28.1649C77.3038 28.1317 76.6957 28.3197 76.1872 28.7287C75.6786 29.1378 75.4243 29.7957 75.4243 30.7023V35.0971H73.9814V26.805H75.4243V28.198Z" fill="black"/>
<rect x="57.3755" y="15.5435" width="1.44328" height="3.60821" transform="rotate(-180 57.3755 15.5435)" fill="black"/>
<rect x="63.877" y="15.5429" width="1.44328" height="3.60821" transform="rotate(-180 63.877 15.5429)" fill="black"/>
<rect x="57.3755" y="16.9859" width="1.44328" height="5.05147" transform="rotate(-90 57.3755 16.9859)" fill="black"/>
<rect x="50.8838" y="16.9859" width="1.44328" height="5.05147" transform="rotate(-90 50.8838 16.9859)" fill="black"/>
<rect x="55.936" y="22.0376" width="1.44328" height="6.49475" transform="rotate(-90 55.936 22.0376)" fill="black"/>
<rect x="55.936" y="11.9348" width="1.44328" height="6.49475" transform="rotate(-90 55.936 11.9348)" fill="black"/>
<rect x="55.936" y="16.9859" width="1.44328" height="3.60821" fill="black"/>
<rect x="62.4277" y="16.9859" width="1.44328" height="3.60821" fill="black"/>
<path fill-rule="evenodd" clip-rule="evenodd" d="M71.3811 20.7384C72.9753 20.7384 74.2677 19.446 74.2677 17.8518C74.2677 16.2576 72.9753 14.9653 71.3811 14.9653C69.7869 14.9653 68.4945 16.2576 68.4945 17.8518C68.4945 19.446 69.7869 20.7384 71.3811 20.7384ZM71.3811 22.1817C73.7724 22.1817 75.7109 20.2431 75.7109 17.8518C75.7109 15.4605 73.7724 13.522 71.3811 13.522C68.9898 13.522 67.0513 15.4605 67.0513 17.8518C67.0513 20.2431 68.9898 22.1817 71.3811 22.1817Z" fill="black"/>
<path d="M80.4753 14.9653C78.8811 14.9653 77.5888 16.2576 77.5888 17.8518C77.5888 19.446 78.8811 20.7384 80.4753 20.7384C81.6023 20.7384 82.5785 20.0925 83.0538 19.1508H84.607C84.0552 20.9074 82.4141 22.1817 80.4753 22.1817C78.084 22.1817 76.1455 20.2431 76.1455 17.8518C76.1455 15.4605 78.084 13.522 80.4753 13.522C82.4141 13.522 84.0552 14.7962 84.607 16.5529H83.0538C82.5785 15.6111 81.6023 14.9653 80.4753 14.9653Z" fill="black"/>
<path d="M92.1309 22.021H90.3398L86.5586 18.0905V22.021H85.1157V10.4119H86.5586V17.3939L90.1408 13.7288H91.9982L88.0346 17.7422L92.1309 22.021Z" fill="black"/>
<path d="M64.8779 22.021V9.91443H66.3208V22.021H64.8779Z" fill="black"/>
</svg>
