<svg width="111" height="23" viewBox="0 0 111 23" fill="none" xmlns="http://www.w3.org/2000/svg">
<g clip-path="url(#clip0_5381_2062)">
<path fill-rule="evenodd" clip-rule="evenodd" d="M0.75 17.8953V0.408876H4.34821V7.02778C4.85525 6.27782 6.18307 5.60245 7.82565 5.60245C11.3045 5.60245 13.4051 8.25911 13.4051 11.8573C13.4051 15.5274 11.0386 18.1597 7.68195 18.1597C6.08693 18.1597 4.85525 17.4601 4.30065 16.5418V17.8956L0.75 17.8953ZM7.0295 8.91019C5.60418 8.91019 4.30065 9.85277 4.30065 11.882C4.30065 13.8619 5.60418 14.8763 7.0295 14.8763C8.45346 14.8763 9.73372 13.8865 9.73372 11.882C9.73372 9.85311 8.45346 8.91019 7.0295 8.91019ZM22.9209 9.51508C22.5114 9.41757 22.1234 9.39294 21.7611 9.39294C20.2882 9.39294 18.9607 10.2637 18.9607 12.6535V17.8956H15.2893V5.89258H18.8399V7.51087C19.4677 6.15842 20.9882 5.77181 21.955 5.77181C22.3174 5.77181 22.6793 5.81936 22.9209 5.89258V9.51508ZM27.3638 10.9637L30.1905 10.5295C30.8426 10.432 31.0595 10.1189 31.0595 9.7077C31.0595 9.00804 30.4564 8.40418 29.2965 8.40418C28.0176 8.40418 27.3166 9.27388 27.2448 10.1662L24.0561 9.51508C24.2011 7.79929 25.7948 5.5306 29.3212 5.5306C33.2095 5.5306 34.6348 7.70315 34.6348 10.1662V16.0361C34.6348 16.977 34.7556 17.7749 34.7785 17.8956H31.4708C31.4461 17.7978 31.35 17.364 31.35 16.5418C30.7222 17.5562 29.5624 18.2333 27.9687 18.2333C25.3363 18.2333 23.8145 16.4929 23.8145 14.5862C23.8145 12.4608 25.3849 11.2538 27.3638 10.9637ZM31.0599 13.1851V12.6535L28.7895 13.0154C28.0176 13.1362 27.437 13.4999 27.437 14.3446C27.437 14.9728 27.8483 15.5763 28.8627 15.5763C29.949 15.5763 31.0599 15.0446 31.0599 13.1851ZM40.9143 17.8953H37.2432V5.89292H40.7936V7.26966C41.4446 6.13447 42.9189 5.57816 44.1506 5.57816C47.1695 5.57816 48.5217 7.72778 48.5217 10.3605V17.8953H44.8502V10.9876C44.8502 9.80384 44.2224 8.90985 42.8946 8.90985C41.6862 8.90985 40.9143 9.8035 40.9143 11.0123V17.8953ZM62.9388 15.7457C62.9388 16.8323 63.012 17.6281 63.0363 17.8956H59.5099C59.4856 17.7502 59.4138 17.2185 59.4138 16.7358C58.8578 17.5562 57.6508 18.1597 56.2022 18.1597C52.8209 18.1597 50.2604 15.5517 50.2604 11.8577C50.2604 8.28375 52.6758 5.60245 56.08 5.60245C58.1335 5.60245 59.0272 6.37567 59.3177 6.83379V0.409218H62.9388V15.7457ZM56.6606 14.8766C58.0846 14.8766 59.3649 13.8619 59.3649 11.882C59.3649 9.87706 58.0846 8.91156 56.6606 8.91156C55.235 8.91156 53.9547 9.8774 53.9547 11.882C53.9547 13.8619 55.235 14.8766 56.6606 14.8766ZM88.4431 9.51508C88.0325 9.41757 87.6473 9.39294 87.285 9.39294C85.8107 9.39294 84.4829 10.2637 84.4829 12.6535V17.8956H80.8118V5.89258H84.3621V7.51087C84.9903 6.15842 86.5121 5.77181 87.4762 5.77181C87.8382 5.77181 88.2015 5.81936 88.4431 5.89258V9.51508ZM93.5689 16.615C93.6236 16.6253 93.6794 16.6311 93.7328 16.641V10.988C93.7328 9.90169 94.4324 8.91156 95.7127 8.91156C97.0419 8.91156 97.6458 9.80384 97.6458 10.939V17.0591C98.2808 17.0909 98.9229 17.1125 99.5795 17.1125C100.15 17.1125 100.712 17.0981 101.267 17.0735V10.9637C101.267 9.90169 101.968 8.91156 103.272 8.91156C104.576 8.91156 105.181 9.80384 105.181 10.939V16.6773C105.317 16.6557 105.457 16.6397 105.592 16.6157C106.868 16.3899 107.916 16.1213 108.73 15.8151V10.1186C108.73 6.85808 106.558 5.5306 104.287 5.5306C102.669 5.5306 101.509 6.06091 100.568 7.41302C99.9634 6.23026 98.7317 5.5306 97.0176 5.5306C95.7127 5.5306 94.168 6.20597 93.5645 7.26932V5.89258H90.061V15.6683C90.9177 16.0361 92.0902 16.3523 93.5689 16.615ZM99.4546 22.3601C97.2013 22.3601 95.0445 22.1805 93.0444 21.8271C90.9451 21.4548 89.3542 20.969 88.183 20.3456L89.6142 17.6599C90.4866 18.1252 91.8199 18.519 93.5761 18.8296C95.3997 19.1543 97.3782 19.3165 99.4546 19.3165C101.532 19.3165 103.51 19.1543 105.336 18.8296C107.091 18.519 108.424 18.1255 109.296 17.6596L110.728 20.3453C109.558 20.969 107.967 21.4535 105.866 21.8267C103.866 22.1805 101.709 22.3601 99.4546 22.3601ZM69.9108 8.98341V17.8956H66.2393V8.98341H64.3309V5.89258H66.2393V4.85352C66.2393 2.10038 67.9048 0.216597 70.829 0.216597C71.5763 0.216597 72.2284 0.312737 72.5678 0.482435V3.47712C72.3738 3.4282 72.0604 3.35635 71.4815 3.35635C70.829 3.35635 69.9108 3.64648 69.9108 4.97464V5.89258H72.5175V8.98341H69.9108ZM76.1732 0.0715332C77.3816 0.0715332 78.3471 1.03703 78.3471 2.22115C78.3471 3.40527 77.3816 4.37077 76.1732 4.37077C75.0147 4.37077 74.0492 3.40527 74.0492 2.22115C74.0492 1.03703 75.0147 0.0715332 76.1732 0.0715332ZM74.3626 17.8956H78.0337V5.89258H74.3626V17.8956Z" fill="#EE7F59"/>
</g>
<defs>
<clipPath id="clip0_5381_2062">
<rect width="110.167" height="22.5808" fill="white" transform="translate(0.75 0.0531006)"/>
</clipPath>
</defs>
</svg>
