<svg width="94" height="21" viewBox="0 0 94 21" fill="none" xmlns="http://www.w3.org/2000/svg">
<g clip-path="url(#clip0_5402_2593)">
<path fill-rule="evenodd" clip-rule="evenodd" d="M0 16.1116V0.623739H3.07018V6.48616C3.50281 5.82192 4.63578 5.22374 6.03731 5.22374C9.00561 5.22374 10.798 7.57677 10.798 10.7637C10.798 14.0143 8.77878 16.3459 5.9147 16.3459C4.55375 16.3459 3.50281 15.7262 3.0296 14.9128V16.1119L0 16.1116ZM5.358 8.15344C4.14184 8.15344 3.0296 8.98829 3.0296 10.7856C3.0296 12.5392 4.14184 13.4377 5.358 13.4377C6.57299 13.4377 7.66538 12.561 7.66538 10.7856C7.66538 8.98859 6.57299 8.15344 5.358 8.15344ZM18.9174 8.68919C18.5679 8.60283 18.2369 8.58101 17.9277 8.58101C16.671 8.58101 15.5383 9.35222 15.5383 11.4689V16.1119H12.4057V5.48071H15.4353V6.91404C15.971 5.71616 17.2683 5.37374 18.0932 5.37374C18.4024 5.37374 18.7113 5.41586 18.9174 5.48071V8.68919ZM22.7083 9.97222L25.1202 9.58768C25.6766 9.50132 25.8617 9.22404 25.8617 8.8598C25.8617 8.2401 25.347 7.70526 24.3574 7.70526C23.2662 7.70526 22.668 8.47556 22.6067 9.26586L19.886 8.68919C20.0097 7.1695 21.3695 5.1601 24.3784 5.1601C27.6961 5.1601 28.9123 7.08435 28.9123 9.26586V14.465C28.9123 15.2983 29.0153 16.005 29.0349 16.1119H26.2126C26.1916 16.0253 26.1095 15.641 26.1095 14.9128C25.5738 15.8113 24.5842 16.411 23.2244 16.411C20.9783 16.411 19.6799 14.8695 19.6799 13.1807C19.6799 11.2983 21.0198 10.2292 22.7083 9.97222ZM25.862 11.9398V11.4689L23.9248 11.7895C23.2662 11.8965 22.7708 12.2186 22.7708 12.9668C22.7708 13.5231 23.1217 14.0577 23.9872 14.0577C24.9141 14.0577 25.862 13.5868 25.862 11.9398ZM34.2703 16.1116H31.1379V5.48101H34.1672V6.70041C34.7228 5.69495 35.9807 5.20222 37.0316 5.20222C39.6076 5.20222 40.7613 7.10616 40.7613 9.43798V16.1116H37.6286V9.99344C37.6286 8.94495 37.0929 8.15313 35.96 8.15313C34.9289 8.15313 34.2703 8.94465 34.2703 10.0153V16.1116ZM53.0627 14.2077C53.0627 15.1701 53.1252 15.875 53.1459 16.1119H50.137C50.1163 15.9831 50.055 15.5122 50.055 15.0847C49.5806 15.8113 48.5507 16.3459 47.3147 16.3459C44.4296 16.3459 42.2448 14.0359 42.2448 10.764C42.2448 7.59859 44.3058 5.22374 47.2105 5.22374C48.9626 5.22374 49.7251 5.90859 49.973 6.31435V0.624042H53.0627V14.2077ZM47.7059 13.438C48.9209 13.438 50.0133 12.5392 50.0133 10.7856C50.0133 9.0098 48.9209 8.15465 47.7059 8.15465C46.4894 8.15465 45.397 9.0101 45.397 10.7856C45.397 12.5392 46.4894 13.438 47.7059 13.438ZM74.8243 8.68919C74.474 8.60283 74.1453 8.58101 73.8361 8.58101C72.5782 8.58101 71.4453 9.35222 71.4453 11.4689V16.1119H68.3129V5.48071H71.3422V6.91404C71.8782 5.71616 73.1767 5.37374 73.9993 5.37374C74.3082 5.37374 74.6182 5.41586 74.8243 5.48071V8.68919ZM79.1979 14.9777C79.2446 14.9868 79.2922 14.9919 79.3377 15.0007V9.99374C79.3377 9.03162 79.9347 8.15465 81.0271 8.15465C82.1613 8.15465 82.6765 8.94495 82.6765 9.95041V15.371C83.2183 15.3992 83.7663 15.4183 84.3265 15.4183C84.8134 15.4183 85.2927 15.4056 85.766 15.3837V9.97222C85.766 9.03162 86.3644 8.15465 87.4775 8.15465C88.5897 8.15465 89.1059 8.94495 89.1059 9.95041V15.0328C89.2223 15.0137 89.3412 14.9995 89.4565 14.9783C90.5454 14.7783 91.4392 14.5404 92.1343 14.2692V9.22374C92.1343 6.33586 90.2806 5.1601 88.3434 5.1601C86.9625 5.1601 85.9732 5.6298 85.1701 6.82738C84.654 5.7798 83.6031 5.1601 82.1405 5.1601C81.0271 5.1601 79.7091 5.75828 79.1941 6.7001V5.48071H76.2048V14.1392C76.9358 14.465 77.9362 14.745 79.1979 14.9777ZM84.2199 20.0662C82.2973 20.0662 80.457 19.9071 78.7504 19.594C76.9591 19.2643 75.6017 18.834 74.6024 18.2819L75.8235 15.9031C76.568 16.3153 77.7056 16.664 79.204 16.9392C80.76 17.2268 82.4482 17.3704 84.2199 17.3704C85.9928 17.3704 87.6798 17.2268 89.2381 16.9392C90.7354 16.664 91.873 16.3156 92.6174 15.9028L93.8386 18.2816C92.8405 18.834 91.4833 19.2631 89.6906 19.5937C87.984 19.9071 86.1437 20.0662 84.2199 20.0662ZM59.0116 8.21829V16.1119H55.8789V8.21829H54.2506V5.48071H55.8789V4.56041C55.8789 2.12192 57.3 0.453436 59.7951 0.453436C60.4327 0.453436 60.9891 0.538588 61.2787 0.688891V3.34132C61.1131 3.29798 60.8457 3.23435 60.3518 3.23435C59.7951 3.23435 59.0116 3.49132 59.0116 4.66768V5.48071H61.2357V8.21829H59.0116ZM64.355 0.324951C65.386 0.324951 66.2099 1.1801 66.2099 2.22889C66.2099 3.27768 65.386 4.13283 64.355 4.13283C63.3665 4.13283 62.5427 3.27768 62.5427 2.22889C62.5427 1.1801 63.3665 0.324951 64.355 0.324951ZM62.8101 16.1119H65.9425V5.48071H62.8101V16.1119Z" fill="white"/>
</g>
<defs>
<clipPath id="clip0_5402_2593">
<rect width="94" height="20" fill="white" transform="translate(0 0.308594)"/>
</clipPath>
</defs>
</svg>
