<svg width="88" height="89" viewBox="0 0 88 89" fill="none" xmlns="http://www.w3.org/2000/svg">
<path d="M39.4375 47.0713V48.256H39.446V47.0713H39.4375Z" fill="#241421" stroke="#51384E" stroke-width="0.230769" stroke-linecap="round" stroke-linejoin="round"/>
<path d="M39.4391 47.0709V63.994C35.276 63.6894 31.2652 63.004 27.4152 61.9294C23.5652 60.8547 20.0368 59.3909 16.8383 57.5378C9.17217 53.1209 5.33072 47.8494 5.29688 41.7317V24.8086C5.3138 27.8124 6.24442 30.6132 8.10595 33.2024C9.75595 35.5209 12.1338 37.6701 15.2476 39.6501C15.7553 39.9801 16.2883 40.3017 16.8383 40.6147C20.0368 42.4678 23.5652 43.9317 27.4152 45.0063C29.0737 45.4717 30.766 45.8609 32.4837 46.174C34.7514 46.5971 37.0699 46.9017 39.4391 47.0709Z" fill="#241421" stroke="#51384E" stroke-width="0.4" stroke-linecap="round" stroke-linejoin="round"/>
<path d="M71.3731 9.13003C63.707 4.71311 54.5771 2.48772 43.9832 2.4708C33.3809 2.45388 24.2763 4.63696 16.6609 9.03696C9.05396 13.4285 5.26325 18.6831 5.2971 24.8093C5.31402 27.8131 6.24465 30.6139 8.10619 33.2031C9.75619 35.5216 12.134 37.6708 15.2478 39.6508C15.7555 39.9808 16.2885 40.3023 16.8385 40.6154C20.037 42.4685 23.5654 43.9323 27.4154 45.007C29.0739 45.4723 30.7662 45.8616 32.4839 46.1747C34.7516 46.5977 37.0701 46.9023 39.4393 47.0716V48.2562L39.4986 58.3593L39.5409 66.7193C39.5494 67.4385 40.0317 68.0816 41.0048 68.64C41.9778 69.207 43.0947 69.4862 44.347 69.4862C45.5993 69.4947 46.7078 69.2154 47.6724 68.657C48.4001 68.2339 48.8486 67.7685 49.0263 67.2608C49.094 67.0831 49.1192 66.9139 49.1192 66.7362L49.1023 64.0031L49.0686 58.3677V55.4739L49.0178 48.8654V47.0885C50.2701 47.0039 51.5224 46.877 52.7493 46.7162C54.2385 46.53 55.7023 46.2846 57.1492 45.9885C58.4438 45.7262 59.7215 45.4216 60.9823 45.0746C60.9907 45.0746 60.9993 45.0746 61.0078 45.0746C64.8493 44.0085 68.3607 42.5616 71.5423 40.7254C72.0331 40.4462 72.5071 40.1585 72.964 39.8708C76.0694 37.8993 78.447 35.767 80.097 33.4739C81.967 30.8677 82.9063 28.0585 82.9063 25.0377V24.9531C82.8725 18.8354 79.0308 13.5639 71.3731 9.13849V9.13003ZM72.964 27.0177C72.5155 29.3362 71.2715 31.477 69.2323 33.4316C68.0054 34.5993 66.4909 35.7162 64.6801 36.757C63.4955 37.4423 62.2684 38.0516 60.9823 38.5846C58.3 39.727 55.3978 40.5393 52.2671 41.047C49.7878 41.4446 47.1732 41.6477 44.4148 41.6562H44.1948C42.0878 41.6477 40.0569 41.5293 38.1107 41.2923C36.1307 41.0639 34.2354 40.7085 32.4161 40.2262C31.7984 40.0654 31.1893 39.8962 30.5885 39.7016C28.1093 38.9316 25.7994 37.9246 23.6502 36.6808C23.3963 36.5285 23.1423 36.3847 22.8969 36.2239C21.9915 35.6739 21.1624 35.0985 20.4093 34.4893C19.8931 34.0916 19.4194 33.677 18.9794 33.2454C16.9402 31.2908 15.6963 29.1416 15.2478 26.8146C15.1125 26.1716 15.0531 25.5031 15.0446 24.8262C15.0192 20.2146 17.8454 16.2716 23.5231 12.997C29.2092 9.71388 36.0378 8.08078 44.0086 8.0977C51.9878 8.11462 58.8331 9.76465 64.5531 13.0731C70.273 16.3731 73.1417 20.3246 73.1671 24.9277C73.1671 25.6385 73.1078 26.3408 72.964 27.0177Z" fill="#241421" stroke="#51384E" stroke-width="0.4" stroke-linecap="round" stroke-linejoin="round"/>
<path d="M59.195 18.9961V29.666C58.2981 29.2175 57.2571 28.9976 56.0894 28.9976C54.7779 28.9976 53.6442 29.2683 52.6796 29.8268L45.8596 33.7615C44.895 34.3199 44.4127 34.9799 44.4127 35.733V41.6561H44.1927C42.0858 41.6476 40.0548 41.5292 38.1087 41.2923C36.1287 41.0638 34.2333 40.7084 32.4141 40.2261V28.803C32.4141 29.3869 32.7103 29.9199 33.3026 30.3938C33.4718 30.5292 33.6579 30.6561 33.8779 30.783C34.851 31.3415 35.9848 31.6207 37.2964 31.6207C38.0918 31.6292 38.8195 31.5276 39.488 31.3246C39.8011 31.223 40.0973 31.113 40.3765 30.9692C40.495 30.9184 40.6049 30.8592 40.7149 30.7915L50.0818 25.3761L57.7565 20.9507C57.7988 20.9253 57.8411 20.8999 57.8834 20.8661C58.7549 20.3415 59.195 19.7153 59.195 18.9961Z" fill="#241421" stroke="#51384E" stroke-width="0.4" stroke-linecap="round" stroke-linejoin="round"/>
<path d="M40.3756 16V23.0654L35.9248 25.6377L33.8517 26.8308C32.8871 27.3892 32.4046 28.0492 32.4131 28.8023V38.6431L30.5855 39.7008C28.1062 38.9308 25.7963 37.9238 23.6471 36.68C23.3933 36.5277 23.1392 36.3838 22.8939 36.2231C21.9885 35.6731 21.1593 35.0977 20.4062 34.4885V21.8723C20.4062 22.5069 20.7616 23.0823 21.4555 23.5731C21.5824 23.6662 21.7178 23.7592 21.8701 23.8438C22.8432 24.4108 23.9855 24.69 25.297 24.69C26.6086 24.6985 27.7424 24.4192 28.707 23.8608L35.6031 19.8838L38.9371 17.9546C39.8933 17.4046 40.3756 16.7531 40.3756 16Z" fill="#241421" stroke="#51384E" stroke-width="0.4" stroke-linecap="round" stroke-linejoin="round"/>
<path d="M73.1695 24.9269C73.1695 25.6376 73.1103 26.3399 72.9664 27.0169C72.518 29.3353 71.2741 31.476 69.2348 33.4306C67.9741 32.2122 66.4171 31.0699 64.5556 29.9952C62.8717 29.0222 61.0864 28.1929 59.1995 27.5075V18.9784C59.1995 18.2253 58.7088 17.5653 57.7357 17.0069C56.7711 16.4399 55.6288 16.1607 54.3172 16.1607C53.0057 16.1522 51.8634 16.4315 50.8988 16.9899L46.6425 19.4522L40.3811 23.0652V15.983C40.3811 15.2299 39.8903 14.5699 38.9172 14.0114C37.9441 13.4445 36.8018 13.1652 35.4988 13.1652C34.1957 13.1652 33.0449 13.4361 32.0803 13.9946L21.8587 19.9007C20.8856 20.4592 20.4117 21.1107 20.4117 21.8722V34.4883C19.8956 34.0906 19.4218 33.6761 18.9818 33.2446C16.9426 31.2899 15.6988 29.1406 15.2504 26.8137C15.115 26.1706 15.0555 25.5022 15.047 24.8253C15.0217 20.2138 17.8479 16.2707 23.5256 12.9961C29.2117 9.71301 36.0404 8.07989 44.0111 8.09681C51.9904 8.11373 58.8356 9.7637 64.5556 13.0722C70.2756 16.3722 73.1441 20.3238 73.1695 24.9269Z" fill="#241421" stroke="#51384E" stroke-width="0.4" stroke-linecap="round" stroke-linejoin="round"/>
<path d="M49.1174 66.7359V83.659C49.1174 84.3782 48.6351 85.0212 47.6705 85.5797C46.7059 86.1382 45.5975 86.4174 44.3452 86.4089C43.0929 86.4089 41.976 86.1297 41.003 85.5628C40.0299 85.0043 39.5476 84.3612 39.5391 83.642L39.4375 63.9943V48.2559H39.446L39.4967 58.3589L39.5391 66.7189C39.5476 67.4382 40.0299 68.0813 41.003 68.6398C41.976 69.2067 43.0929 69.4859 44.3452 69.4859C45.5975 69.4944 46.7059 69.2151 47.6705 68.6566C48.3982 68.2335 48.8467 67.7682 49.0244 67.2606C49.0921 67.0829 49.1174 66.9136 49.1174 66.7359Z" fill="#241421" stroke="#51384E" stroke-width="0.4" stroke-linecap="round" stroke-linejoin="round"/>
<path d="M60.9816 31.8154V38.5847C58.2993 39.727 55.3971 40.5392 52.2664 41.0469C49.7871 41.4446 47.1725 41.6477 44.4141 41.6562V35.7331C44.4225 36.2747 44.6763 36.7739 45.184 37.2139C45.3786 37.3916 45.6071 37.5523 45.8779 37.713C46.851 38.2715 47.9933 38.5507 49.3048 38.5592C50.6164 38.5592 51.75 38.28 52.7231 37.7215L58.4347 34.4216L59.1964 33.9816L59.5347 33.787C60.4994 33.2285 60.9816 32.5685 60.9816 31.8154Z" fill="#241421" stroke="#51384E" stroke-width="0.4" stroke-linecap="round" stroke-linejoin="round"/>
<path d="M60.9816 31.815C60.9816 32.568 60.4994 33.228 59.5347 33.7865L59.1964 33.9811L58.4347 34.4211L52.7231 37.7211C51.75 38.2796 50.6164 38.5588 49.3048 38.5588C47.9933 38.5503 46.851 38.2711 45.8779 37.7126C45.6071 37.5519 45.3786 37.3911 45.184 37.2134C44.6763 36.7734 44.4225 36.2742 44.4141 35.7326C44.4141 34.9796 44.8964 34.3196 45.861 33.7611L52.681 29.8265C53.6456 29.268 54.7793 28.9888 56.0908 28.9973C57.2585 28.9973 58.2994 29.2173 59.1964 29.6657C59.3064 29.7165 59.4162 29.7757 59.5177 29.835C60.4908 30.4019 60.9731 31.0619 60.9816 31.815Z" fill="#241421" stroke="#51384E" stroke-width="0.4" stroke-linecap="round" stroke-linejoin="round"/>
<path d="M40.3756 15.9837V16.0007C40.3756 16.7538 39.8933 17.4053 38.9371 17.9553L35.6031 19.8845L28.707 23.8614C27.7424 24.4199 26.6086 24.6992 25.297 24.6907C23.9855 24.6907 22.8432 24.4115 21.8701 23.8446C21.7178 23.7599 21.5824 23.6669 21.4555 23.5738C20.7616 23.083 20.4147 22.5076 20.4062 21.873C20.4062 21.1115 20.88 20.4599 21.8531 19.9014L32.0747 13.9953C33.0393 13.4369 34.1817 13.166 35.4933 13.166C36.8048 13.166 37.9386 13.4452 38.9117 14.0122C39.8848 14.5706 40.3756 15.2306 40.3756 15.9837Z" fill="#241421" stroke="#51384E" stroke-width="0.4" stroke-linecap="round" stroke-linejoin="round"/>
<path d="M59.195 18.979V18.9959C59.195 19.7152 58.755 20.3413 57.8835 20.8659C57.8412 20.8998 57.799 20.9252 57.7567 20.9506L50.0819 25.3759L40.715 30.7913C40.605 30.859 40.4951 30.9182 40.3766 30.969C40.0974 31.1129 39.8012 31.2229 39.4881 31.3244C38.8196 31.5275 38.0919 31.629 37.2965 31.6206C35.9849 31.6206 34.8511 31.3413 33.878 30.7829C33.658 30.6559 33.4719 30.529 33.3026 30.3936C32.7103 29.9198 32.4142 29.3867 32.4142 28.8029C32.4057 28.0498 32.8882 27.3898 33.8528 26.8313L35.9258 25.6382L40.3766 23.0659L46.6381 19.4529L50.8943 16.9905C51.8589 16.4321 53.0012 16.1529 54.3127 16.1613C55.6243 16.1613 56.7666 16.4406 57.7313 17.0075C58.7043 17.5659 59.195 18.2259 59.195 18.979Z" fill="#241421" stroke="#51384E" stroke-width="0.4" stroke-linecap="round" stroke-linejoin="round"/>
<path d="M82.9042 25.0293V41.8678C82.938 47.9855 79.1471 53.2486 71.5402 57.6402C68.3586 59.4763 64.8472 60.9231 61.0056 61.9893C57.1895 63.0385 53.2294 63.7155 49.1002 64.0032L49.0665 58.3678V55.4739L49.0156 48.8655V47.0886C50.2679 47.004 51.5202 46.877 52.7471 46.7162C54.2363 46.5301 55.7002 46.2848 57.1471 45.9886C58.4417 45.7263 59.7194 45.4216 60.9802 45.0747C60.9886 45.0747 60.9972 45.0747 61.0056 45.0747C64.8472 44.0085 68.3586 42.5616 71.5402 40.7255C72.0309 40.4462 72.5049 40.1586 72.9619 39.8709C76.0672 37.8994 78.4449 35.767 80.0949 33.4739C81.9649 30.8678 82.9042 28.0586 82.9042 25.0378V25.0293Z" fill="#241421" stroke="#51384E" stroke-width="0.4" stroke-linecap="round" stroke-linejoin="round"/>
</svg>
