<svg width="88" height="89" viewBox="0 0 88 89" fill="none" xmlns="http://www.w3.org/2000/svg">
<path d="M28.2478 36.9281V51.1075C28.2549 52.5765 27.3536 53.8255 25.544 54.8759C23.7343 55.9191 21.5627 56.4372 19.022 56.4301C15.5375 56.423 12.4433 55.8268 9.73234 54.6417C7.02844 53.4494 4.31038 52.2572 1.57812 51.0578V36.8643C4.31038 38.0636 7.02844 39.2559 9.73234 40.4481C12.4433 41.6333 15.5375 42.2294 19.022 42.2365C21.5627 42.2365 23.7343 41.7255 25.544 40.6823C27.3465 39.6391 28.2478 38.3901 28.2478 36.9281Z" fill="#241421" stroke="#51384E" stroke-width="0.193548" stroke-linecap="round" stroke-linejoin="round"/>
<path d="M50.712 24.3237C50.13 23.8199 49.3849 23.4295 48.4765 23.1599C47.5681 22.8831 46.6029 22.7412 45.5881 22.7412L31.87 22.7199C30.7842 22.7128 29.9255 22.9682 29.2939 23.4863C28.8823 23.8199 28.6978 24.1605 28.7404 24.5224C28.7617 24.7211 28.8468 24.927 29.0029 25.1328L31.9055 29.3199C35.241 28.4824 38.6758 27.8154 42.21 27.3115C45.7442 26.8005 49.3281 26.467 52.9546 26.3037L50.712 24.3237Z" fill="#241421" stroke="#51384E" stroke-width="0.193548" stroke-linecap="round" stroke-linejoin="round"/>
<path d="M53.1232 47.6441L50.8452 49.5886C50.2703 50.0854 49.5181 50.4757 48.5955 50.7595C47.6729 51.0434 46.7007 51.1783 45.6858 51.1783L33.5291 51.157H31.9678C30.882 51.1499 30.0303 50.8873 29.4058 50.3621C29.0439 50.057 28.8594 49.7376 28.8594 49.4041C28.8594 49.177 28.9516 48.9428 29.1291 48.7015L31.9891 44.5215C32.4929 44.6492 32.9968 44.777 33.5078 44.8976C34.331 45.0963 35.1542 45.2808 35.9845 45.4583C38.0781 45.8983 40.1929 46.2744 42.3432 46.5866C45.8632 47.0976 49.4542 47.4454 53.1232 47.6441Z" fill="#241421" stroke="#51384E" stroke-width="0.193548" stroke-linecap="round" stroke-linejoin="round"/>
<path d="M28.2478 36.9137V36.9279C28.2478 38.3898 27.3465 39.6388 25.544 40.682C23.7343 41.7253 21.5627 42.2433 19.022 42.2362C15.5375 42.2291 12.4433 41.633 9.73234 40.4479C7.02844 39.2556 4.31038 38.0633 1.57812 36.864C4.29619 35.6788 7.00714 34.5008 9.72524 33.3298C12.4362 32.1588 15.502 31.584 18.9085 31.584C21.4491 31.5911 23.642 32.1162 25.4801 33.1524C27.3181 34.1956 28.2407 35.4446 28.2478 36.9137Z" fill="#241421" stroke="#51384E" stroke-width="0.193548" stroke-linecap="round" stroke-linejoin="round"/>
<path d="M86.0374 37.0205V51.2141C86.0374 51.4624 85.9665 51.7179 85.8245 51.9663C85.6826 52.2147 85.4626 52.4276 85.1716 52.5908C81.5239 54.9115 77.131 56.5863 72 57.6154C66.8761 58.6373 61.589 59.1483 56.1458 59.1412C55.131 59.1412 54.1232 59.1199 53.1155 59.0844V47.6444C49.4465 47.4457 45.8555 47.0979 42.3355 46.587C40.1852 46.2747 38.0703 45.8986 35.9768 45.4586C35.1465 45.2812 34.3232 45.0966 33.5 44.8979V36.9141H33.5213L33.5426 40.8528C33.5426 41.2715 33.791 41.6192 34.2806 41.9031C34.7703 42.187 35.3381 42.4141 35.991 42.5844H35.9981C38.56 43.1663 41.1574 43.6489 43.7903 44.0321C44.4858 44.1315 45.1813 44.2308 45.8839 44.316C49.2406 44.7276 52.6613 44.9405 56.1458 44.9476C60.2336 44.9476 64.229 44.6637 68.1394 44.0889H68.1535C69.4452 43.8973 70.7297 43.6773 72 43.4218C77.131 42.3928 81.5239 40.7179 85.1716 38.3973C85.4626 38.2341 85.6826 38.0212 85.8245 37.7728C85.9665 37.5244 86.0374 37.2689 86.0374 37.0205Z" fill="#241421" stroke="#51384E" stroke-width="0.193548" stroke-linecap="round" stroke-linejoin="round"/>
<path d="M85.8176 36.2605C85.6686 36.0121 85.4486 35.7992 85.1576 35.636C81.4815 33.3012 77.0744 31.6121 71.9364 30.5689C66.7912 29.5186 61.5041 28.9934 56.0609 28.9863C55.0176 28.9863 53.9743 29.0005 52.9453 29.036C50.5324 29.1141 48.1551 29.2986 45.806 29.5754C42.4493 29.9799 39.1634 30.5476 35.9343 31.2715C35.2885 31.4347 34.7137 31.6618 34.224 31.9457C33.7414 32.2296 33.4931 32.5773 33.5001 32.996L33.5215 36.9134L33.5427 40.8521C33.5427 41.2708 33.7912 41.6186 34.2809 41.9025C34.7705 42.1863 35.3382 42.4134 35.9911 42.5837H35.9982C38.5601 43.1657 41.1576 43.6483 43.7905 44.0315C44.486 44.1308 45.1814 44.2302 45.884 44.3154C49.2408 44.727 52.6615 44.9399 56.146 44.947C60.2338 44.947 64.2292 44.6631 68.1395 44.0883H68.1537C69.4453 43.8966 70.7298 43.6767 72.0002 43.4212C77.1312 42.3921 81.5241 40.7173 85.1718 38.3967C85.4628 38.2334 85.6828 38.0205 85.8247 37.7721C85.9667 37.5237 86.0376 37.2683 86.0376 37.0199C86.0376 36.7715 85.9596 36.516 85.8176 36.2605ZM65.6131 39.4825C64.4066 40.1779 62.966 40.5257 61.2912 40.5257C59.6234 40.5186 58.1827 40.1637 56.9621 39.4612C55.7414 38.7586 55.1312 37.9283 55.1241 36.9631C55.117 35.9979 55.7201 35.1676 56.9337 34.465C58.1472 33.7696 59.588 33.4218 61.2557 33.4218C62.9234 33.4289 64.3711 33.7767 65.5847 34.4863C66.8053 35.1889 67.4156 36.0192 67.4227 36.9844C67.4298 37.9496 66.8266 38.7799 65.6131 39.4825Z" fill="#241421" stroke="#51384E" stroke-width="0.193548" stroke-linecap="round" stroke-linejoin="round"/>
<path d="M67.4238 36.9845C67.4309 37.9496 66.8276 38.7799 65.6141 39.4825C64.4076 40.178 62.967 40.5257 61.2922 40.5257C59.6244 40.5186 58.1838 40.1638 56.9631 39.4612C55.7425 38.7586 55.1322 37.9283 55.1251 36.9632C55.118 35.998 55.7212 35.1677 56.9347 34.4651C58.1483 33.7696 59.5889 33.4219 61.2567 33.4219C62.9244 33.429 64.3722 33.7767 65.5857 34.4864C66.8063 35.189 67.4167 36.0193 67.4238 36.9845Z" fill="#241421" stroke="#51384E" stroke-width="0.193548" stroke-linecap="round" stroke-linejoin="round"/>
<path d="M52.9475 26.3037V29.036C50.5346 29.114 48.1571 29.2985 45.8081 29.5753C42.4513 29.9798 39.1655 30.5476 35.9365 31.2715C35.2907 31.4347 34.7159 31.6618 34.2262 31.9456C33.7436 32.2295 33.4952 32.5773 33.5023 32.996V43.1302C32.963 43.2508 32.4307 43.3785 31.8984 43.5134V29.3198C35.2339 28.4824 38.6688 27.8153 42.203 27.3115C45.7371 26.8005 49.321 26.4669 52.9475 26.3037Z" fill="#241421" stroke="#51384E" stroke-width="0.193548" stroke-linecap="round" stroke-linejoin="round"/>
<path d="M31.9027 29.3199V43.5134L29.0001 39.3263C28.8014 39.0638 28.7163 38.8083 28.7376 38.5599V24.5225C28.7589 24.7212 28.844 24.927 29.0001 25.1328L31.9027 29.3199Z" fill="#241421" stroke="#51384E" stroke-width="0.193548" stroke-linecap="round" stroke-linejoin="round"/>
<path d="M53.1232 47.6445V61.8381L50.8452 63.7826C50.2703 64.2794 49.5181 64.6697 48.5955 64.9536C47.6729 65.2374 46.7007 65.3723 45.6858 65.3723L31.9678 65.351C30.882 65.3439 30.0303 65.0813 29.4058 64.5561C29.0936 64.2865 28.9161 64.0168 28.8736 63.7329V63.4278L28.8594 49.4045C28.8594 49.7381 29.0439 50.0574 29.4058 50.3626C30.0303 50.8878 30.882 51.1503 31.9678 51.1574H33.5291L45.6858 51.1787C46.7007 51.1787 47.6729 51.0439 48.5955 50.76C49.5181 50.4761 50.2703 50.0858 50.8452 49.589L53.1232 47.6445Z" fill="#241421" stroke="#51384E" stroke-width="0.193548" stroke-linecap="round" stroke-linejoin="round"/>
<path d="M28.875 63.7326V63.4346V63.7326Z" fill="#241421"/>
<path d="M28.875 63.7326V63.4346" stroke="#51384E" stroke-width="0.193548" stroke-linecap="round" stroke-linejoin="round"/>
</svg>
