<svg width="48" height="35" viewBox="0 0 48 35" fill="none" xmlns="http://www.w3.org/2000/svg">
<path d="M23.4318 0.527076C23.936 0.23598 24.7535 0.23598 25.2577 0.527077L29.518 2.98677C30.0222 3.27786 30.0222 3.74982 29.518 4.04092L6.99918 17.0421C6.49499 17.3332 5.67753 17.3332 5.17333 17.0421L0.913024 14.5825C0.40883 14.2914 0.408831 13.8194 0.913025 13.5283L23.4318 0.527076Z" fill="#F0F5F4" stroke="black" stroke-width="0.4"/>
<rect width="4.91938" height="5.62215" transform="matrix(0.866025 0.5 0 1 0.913086 14.5825)" fill="#F0F5F4" stroke="black" stroke-width="0.4"/>
<rect width="26.0024" height="5.62215" transform="matrix(0.866025 -0.5 0 1 6.99902 17.0421)" fill="#F0F5F4" stroke="black" stroke-width="0.4"/>
<path d="M0.534668 14.0554C0.534668 14.2612 0.679176 14.4476 0.912813 14.5825V20.2046C0.679176 20.0697 0.534668 19.8834 0.534668 19.6775V14.0554Z" fill="#F0F5F4" stroke="black" stroke-width="0.4"/>
<path d="M5.17334 17.0421C5.67753 17.3332 6.49499 17.3332 6.99919 17.0421V22.6643C6.49499 22.9554 5.67753 22.9554 5.17334 22.6643V17.0421Z" fill="#F0F5F4" stroke="black" stroke-width="0.4"/>
<path d="M29.8962 3.51385C29.8962 3.71969 29.7517 3.90604 29.5181 4.04093V9.66308C29.7517 9.52819 29.8962 9.34184 29.8962 9.136V3.51385Z" fill="#F0F5F4" stroke="black" stroke-width="0.4"/>
<path d="M32.2165 6.14924C32.7207 5.85814 33.5381 5.85814 34.0423 6.14924L38.3026 8.60893C38.8068 8.90003 38.8068 9.37199 38.3026 9.66308L15.7838 22.6643C15.2797 22.9554 14.4622 22.9554 13.958 22.6643L9.69769 20.2046C9.1935 19.9135 9.1935 19.4416 9.69769 19.1505L32.2165 6.14924Z" fill="#F0F5F4" stroke="black" stroke-width="0.4"/>
<rect width="4.91938" height="5.62215" transform="matrix(0.866025 0.5 0 1 9.69775 20.2046)" fill="#F0F5F4" stroke="black" stroke-width="0.4"/>
<rect width="26.0024" height="5.62215" transform="matrix(0.866025 -0.5 0 1 15.7837 22.6643)" fill="#F0F5F4" stroke="black" stroke-width="0.4"/>
<path d="M9.31934 19.6775C9.31934 19.8834 9.46384 20.0697 9.69748 20.2046V25.8267C9.46384 25.6919 9.31934 25.5055 9.31934 25.2997V19.6775Z" fill="#F0F5F4" stroke="black" stroke-width="0.4"/>
<path d="M13.958 22.6643C14.4622 22.9554 15.2797 22.9554 15.7839 22.6643V28.2865C15.2797 28.5776 14.4622 28.5776 13.958 28.2865V22.6643Z" fill="#F0F5F4" stroke="black" stroke-width="0.4"/>
<path d="M38.6804 9.13602C38.6804 9.34185 38.5359 9.5282 38.3022 9.66309V15.2852C38.5359 15.1504 38.6804 14.964 38.6804 14.7582V9.13602Z" fill="#F0F5F4" stroke="black" stroke-width="0.4"/>
<path d="M41.0011 12.1228C41.5053 11.8317 42.3228 11.8317 42.827 12.1228L47.0873 14.5825C47.5915 14.8736 47.5915 15.3455 47.0873 15.6366L24.5685 28.6378C24.0643 28.9289 23.2469 28.9289 22.7427 28.6378L18.4824 26.1782C17.9782 25.8871 17.9782 25.4151 18.4824 25.124L41.0011 12.1228Z" fill="#F0F5F4" stroke="black" stroke-width="0.4"/>
<rect width="4.91938" height="5.62215" transform="matrix(0.866025 0.5 0 1 18.4819 26.1781)" fill="#F0F5F4" stroke="black" stroke-width="0.4"/>
<rect width="26.0024" height="5.62215" transform="matrix(0.866025 -0.5 0 1 24.5684 28.6378)" fill="#F0F5F4" stroke="black" stroke-width="0.4"/>
<path d="M18.104 25.6511C18.104 25.8569 18.2485 26.0432 18.4821 26.1781V31.8003C18.2485 31.6654 18.104 31.479 18.104 31.2732V25.6511Z" fill="#F0F5F4" stroke="black" stroke-width="0.4"/>
<path d="M22.7427 28.6378C23.2469 28.9289 24.0643 28.9289 24.5685 28.6378V34.26C24.0643 34.5511 23.2469 34.5511 22.7427 34.26V28.6378Z" fill="#F0F5F4" stroke="black" stroke-width="0.4"/>
<path d="M47.4651 15.1095C47.4651 15.3154 47.3206 15.5017 47.0869 15.6366V21.2588C47.3206 21.1239 47.4651 20.9375 47.4651 20.7317V15.1095Z" fill="#F0F5F4" stroke="black" stroke-width="0.4"/>
</svg>
