<svg width="38" height="46" viewBox="0 0 38 46" fill="none" xmlns="http://www.w3.org/2000/svg">
<mask id="path-1-inside-1_5816_8869" fill="white">
<path d="M24.0929 27.271L25.8359 22.5762L28.9719 20.7656L28.6624 24.8789L30.3657 19.9609L34.5469 17.5469L30.0172 30.624L25.8359 33.0381L27.8099 27.3398C25.9633 31.2489 23.0471 34.6482 19.9116 36.4585V32.4351C21.3622 31.2625 23.0071 29.3643 23.3377 28.8467L19.9116 30.8247V25.9966L24.0929 23.5825V27.271Z"/>
</mask>
<path d="M24.0929 27.271L23.687 27.5054L24.4492 27.2898L24.0929 27.271ZM25.8359 22.5762V22.1074L25.595 22.2465L25.4796 22.5574L25.8359 22.5762ZM28.9719 20.7656L29.3762 20.5746L29.4164 20.0402L28.9719 20.2969V20.7656ZM28.6624 24.8789L28.2581 25.0699L29.0255 24.8789L28.6624 24.8789ZM30.3657 19.9609V19.4922L30.1147 19.6371L30.0026 19.961L30.3657 19.9609ZM34.5469 17.5469L34.91 17.5469L35.2038 16.6989L34.5469 17.0781V17.5469ZM30.0172 30.624V31.0928L30.2681 30.9479L30.3803 30.624L30.0172 30.624ZM25.8359 33.0381L25.4729 33.0381L25.1791 33.8861L25.8359 33.5068V33.0381ZM27.8099 27.3398H28.173L27.4851 27.2461L27.8099 27.3398ZM19.9116 36.4585L19.5057 36.6929V37.1616L19.9116 36.9272V36.4585ZM19.9116 32.4351L19.832 32.0214L19.5057 32.2852V32.6694L19.9116 32.4351ZM23.3377 28.8467L23.6016 29.0504L24.4362 27.7437L23.3377 28.3779V28.8467ZM19.9116 30.8247L19.5057 31.0591V31.5278L19.9116 31.2935V30.8247ZM19.9116 25.9966V25.5278L19.5057 25.7622V26.231L19.9116 25.9966ZM24.0929 23.5825L24.4988 23.3481V22.8794L24.0929 23.1138V23.5825ZM24.0929 27.271L24.4492 27.2898L26.1923 22.595L25.8359 22.5762L25.4796 22.5574L23.7366 27.2522L24.0929 27.271ZM25.8359 22.5762V23.0449L28.9719 21.2344V20.7656V20.2969L25.8359 22.1074V22.5762ZM28.9719 20.7656L28.5676 20.9566L28.2581 25.0699L28.6624 24.8789L29.0667 24.6879L29.3762 20.5746L28.9719 20.7656ZM28.6624 24.8789L29.0255 24.8789L30.7288 19.9609L30.3657 19.9609L30.0026 19.961L28.2993 24.879L28.6624 24.8789ZM30.3657 19.9609V20.4297L34.5469 18.0156V17.5469V17.0781L30.3657 19.4922V19.9609ZM34.5469 17.5469L34.1838 17.5469L29.6541 30.624L30.0172 30.624L30.3803 30.624L34.91 17.5469L34.5469 17.5469ZM30.0172 30.624V30.1553L25.8359 32.5693V33.0381V33.5068L30.0172 31.0928V30.624ZM25.8359 33.0381L26.199 33.0381L28.173 27.3398H27.8099H27.4468L25.4729 33.0381L25.8359 33.0381ZM27.8099 27.3398L27.4851 27.2461C25.7145 30.9943 22.9181 34.254 19.9116 35.9897V36.4585V36.9272C23.176 35.0425 26.2121 31.5034 28.1346 27.4336L27.8099 27.3398ZM19.9116 36.4585L20.3176 36.2241V32.2007L19.9116 32.4351L19.5057 32.6694V36.6929L19.9116 36.4585ZM19.9116 32.4351L19.9912 32.8487C20.7546 32.2317 21.5575 31.4339 22.2072 30.731C22.5334 30.378 22.8259 30.0437 23.0606 29.7609C23.2862 29.4891 23.4839 29.2347 23.6016 29.0504L23.3377 28.8467L23.0737 28.643C23.0261 28.7175 22.8942 28.8945 22.6731 29.1609C22.4611 29.4162 22.1897 29.7268 21.8821 30.0596C21.2641 30.7283 20.5192 31.4659 19.832 32.0214L19.9116 32.4351ZM23.3377 28.8467V28.3779L19.9116 30.356V30.8247V31.2935L23.3377 29.3154V28.8467ZM19.9116 30.8247L20.3176 30.5903V25.7622L19.9116 25.9966L19.5057 26.231V31.0591L19.9116 30.8247ZM19.9116 25.9966V26.4653L24.0929 24.0513V23.5825V23.1138L19.9116 25.5278V25.9966ZM24.0929 23.5825L23.687 23.8169V27.5054L24.0929 27.271L24.4988 27.0366V23.3481L24.0929 23.5825Z" fill="#1B2D2B" mask="url(#path-1-inside-1_5816_8869)"/>
<path d="M16.0645 22.6905C16.0645 21.6809 16.7732 20.4534 17.6475 19.9486L35.5883 9.59046C36.4626 9.0857 37.1713 9.49489 37.1713 10.5044V31.2207C37.1713 32.2302 36.4626 33.4578 35.5883 33.9625L17.6475 44.3207C16.7732 44.8254 16.0645 44.4162 16.0645 43.4067V22.6905Z" stroke="#1B2D2B" stroke-width="0.46875"/>
<rect width="18.2791" height="20.7163" transform="matrix(0.866025 0.5 0 1 0.234375 13.5509)" stroke="#1B2D2B" stroke-width="0.46875"/>
<rect width="20.7163" height="18.2791" transform="matrix(0.866025 -0.5 0.866025 0.5 1.81738 10.8091)" stroke="#1B2D2B" stroke-width="0.46875"/>
<path d="M16.0645 43.4067C16.0645 43.8745 16.2191 44.2531 16.5282 44.4316L0.698029 35.292C0.388926 35.1136 0.234375 34.735 0.234375 34.2672L16.0645 43.4067Z" stroke="#1B2D2B" stroke-width="0.46875"/>
<path d="M16.0645 22.6905C16.0645 21.6809 16.7732 20.4534 17.6475 19.9486L1.81739 10.8091C0.943114 11.3138 0.234375 12.5414 0.234375 13.5509L16.0645 22.6905Z" stroke="#1B2D2B" stroke-width="0.46875"/>
<path d="M36.7078 9.47958C36.3987 9.30112 35.9936 9.35656 35.5884 9.59046L19.7583 0.450929C20.1634 0.217028 20.5686 0.161587 20.8777 0.340048L36.7078 9.47958Z" stroke="#1B2D2B" stroke-width="0.46875"/>
</svg>
