<svg width="40" height="43" viewBox="0 0 40 43" fill="none" xmlns="http://www.w3.org/2000/svg">
<path d="M18.28 11.9802C19.0986 11.5076 20.4258 11.5076 21.2444 11.9802L38.0423 21.6785C38.8609 22.1511 38.8609 22.9174 38.0423 23.39L21.2444 33.0883C20.4258 33.5609 19.0986 33.5609 18.28 33.0883L1.48213 23.39C0.663552 22.9174 0.663551 22.1511 1.48213 21.6785L18.28 11.9802Z" fill="#F0F5F4" stroke="black" stroke-width="0.4"/>
<rect width="19.3966" height="8.5573" transform="matrix(0.866025 0.5 0 1 1.48193 23.39)" fill="#F0F5F4" stroke="black" stroke-width="0.4"/>
<rect width="19.3966" height="8.5573" transform="matrix(0.866025 -0.5 0 1 21.2441 33.0883)" fill="#F0F5F4" stroke="black" stroke-width="0.4"/>
<path d="M0.868164 22.5342C0.868164 22.8684 1.10278 23.171 1.4821 23.39V31.9473C1.10278 31.7283 0.868164 31.4257 0.868164 31.0915V22.5342Z" fill="#F0F5F4" stroke="black" stroke-width="0.4"/>
<path d="M18.2798 33.0883C19.0984 33.5609 20.4255 33.5609 21.2441 33.0883V41.6456C20.4255 42.1182 19.0984 42.1182 18.2798 41.6456V33.0883Z" fill="#F0F5F4" stroke="black" stroke-width="0.4"/>
<path d="M38.6559 22.5342C38.6559 22.8684 38.4213 23.171 38.042 23.39V31.9473C38.4213 31.7283 38.6559 31.4257 38.6559 31.0915V22.5342Z" fill="#F0F5F4" stroke="black" stroke-width="0.4"/>
<path d="M18.5992 0.737145C19.3043 0.330031 20.4476 0.330031 21.1527 0.737145L35.6228 9.09146C36.328 9.49857 36.328 10.1586 35.6228 10.5658L21.1527 18.9201C20.4476 19.3272 19.3043 19.3272 18.5992 18.9201L4.12911 10.5657C3.42396 10.1586 3.42397 9.49857 4.12911 9.09146L18.5992 0.737145Z" fill="#F0F5F4" stroke="black" stroke-width="0.4"/>
<rect width="16.7086" height="7.37145" transform="matrix(0.866025 0.5 0 1 4.12891 10.5658)" fill="#F0F5F4" stroke="black" stroke-width="0.4"/>
<rect width="16.7086" height="7.37145" transform="matrix(0.866025 -0.5 0 1 21.1523 18.9201)" fill="#F0F5F4" stroke="black" stroke-width="0.4"/>
<path d="M3.6001 9.82855C3.6001 10.1164 3.8022 10.377 4.12895 10.5657V17.9372C3.8022 17.7485 3.6001 17.4879 3.6001 17.2V9.82855Z" fill="#F0F5F4" stroke="black" stroke-width="0.4"/>
<path d="M18.5991 18.9201C19.3043 19.3272 20.4475 19.3272 21.1527 18.9201V26.2916C20.4475 26.6987 19.3043 26.6987 18.5991 26.2916V18.9201Z" fill="#F0F5F4" stroke="black" stroke-width="0.4"/>
<path d="M36.1514 9.82855C36.1514 10.1164 35.9493 10.377 35.6226 10.5657V17.9372C35.9493 17.7485 36.1514 17.4879 36.1514 17.2V9.82855Z" fill="#F0F5F4" stroke="black" stroke-width="0.4"/>
</svg>
