<svg width="43" height="43" viewBox="0 0 43 43" fill="none" xmlns="http://www.w3.org/2000/svg">
<circle cx="12.0046" cy="12.0046" r="12.0046" transform="matrix(0.866025 -0.5 0 1 21.3735 13.6254)" fill="#F0F5F4" stroke="black" stroke-width="0.4"/>
<path d="M21.3733 25.6299C21.3733 28.7022 22.3883 31.1884 24.4183 32.3604L14.022 26.3581C11.992 25.1861 10.9771 22.6999 10.9771 19.6276L21.3733 25.6299Z" fill="#F0F5F4" stroke="black" stroke-width="0.4"/>
<path d="M21.3733 25.6299C21.3733 19 26.0279 10.938 31.7696 7.62308L21.3733 1.62079C15.6316 4.93576 10.9771 12.9977 10.9771 19.6276L21.3733 25.6299Z" fill="#F0F5F4" stroke="black" stroke-width="0.4"/>
<path d="M39.1211 6.89487C37.0911 5.72285 34.4304 6.08695 31.7698 7.62307L21.3735 1.62078C24.0342 0.0846652 26.6948 -0.279435 28.7248 0.892585L39.1211 6.89487Z" fill="#F0F5F4" stroke="black" stroke-width="0.4"/>
<path d="M0.17334 8.58738C0.17334 7.26139 1.10425 6.72393 2.25259 7.38692L18.8866 16.9906C20.035 17.6536 20.9659 19.266 20.9659 20.592V39.7993C20.9659 41.1253 20.035 41.6627 18.8866 40.9997L2.25259 31.3961C1.10425 30.7331 0.17334 29.1207 0.17334 27.7947V8.58738Z" fill="#F0F5F4" stroke="black" stroke-width="0.4"/>
<rect width="12.0046" height="19.2073" transform="matrix(0.866025 -0.5 0 1 20.9663 20.592)" fill="#F0F5F4" stroke="black" stroke-width="0.4"/>
<rect width="19.2073" height="12.0046" transform="matrix(0.866025 0.5 -0.866025 0.5 12.6489 1.38464)" fill="#F0F5F4" stroke="black" stroke-width="0.4"/>
<path d="M0.782715 7.24129C1.18871 7.00689 1.72084 7.07971 2.25297 7.38693L12.6492 1.38464C12.1171 1.07742 11.585 1.0046 11.179 1.239L0.782715 7.24129Z" fill="#F0F5F4" stroke="black" stroke-width="0.4"/>
<path d="M20.966 20.5919C20.966 19.266 20.0351 17.6536 18.8867 16.9906L29.283 10.9883C30.4313 11.6513 31.3622 13.2637 31.3622 14.5897L20.966 20.5919Z" fill="#F0F5F4" stroke="black" stroke-width="0.4"/>
<path d="M20.3569 41.1454C20.7629 40.911 20.9659 40.4137 20.9659 39.7993L31.3622 33.797C31.3622 34.4114 31.1592 34.9087 30.7532 35.1431L20.3569 41.1454Z" fill="#F0F5F4" stroke="black" stroke-width="0.4"/>
</svg>
