<svg width="24" height="24" viewBox="0 0 24 24" fill="none" xmlns="http://www.w3.org/2000/svg">
<path d="M4.22367 19.778C4.68754 20.2425 5.23864 20.6108 5.84529 20.8617C6.45194 21.1126 7.10219 21.2411 7.75867 21.24C8.4153 21.2411 9.06569 21.1125 9.6725 20.8617C10.2793 20.6108 10.8306 20.2425 11.2947 19.778L14.1227 16.949L12.7087 15.535L9.88067 18.364C9.31714 18.925 8.55434 19.2399 7.75917 19.2399C6.964 19.2399 6.2012 18.925 5.63767 18.364C5.07617 17.8007 4.76088 17.0378 4.76088 16.2425C4.76088 15.4471 5.07617 14.6842 5.63767 14.121L8.46667 11.293L7.05267 9.87896L4.22367 12.707C3.28748 13.6454 2.76172 14.9169 2.76172 16.2425C2.76172 17.568 3.28748 18.8395 4.22367 19.778ZM19.7797 11.293C20.7154 10.3542 21.2408 9.08288 21.2408 7.75746C21.2408 6.43204 20.7154 5.16068 19.7797 4.22196C18.8412 3.28577 17.5698 2.76001 16.2442 2.76001C14.9186 2.76001 13.6471 3.28577 12.7087 4.22196L9.88067 7.05096L11.2947 8.46496L14.1227 5.63596C14.6862 5.07495 15.449 4.75999 16.2442 4.75999C17.0393 4.75999 17.8021 5.07495 18.3657 5.63596C18.9272 6.19923 19.2425 6.96213 19.2425 7.75746C19.2425 8.55279 18.9272 9.31569 18.3657 9.87896L15.5367 12.707L16.9507 14.121L19.7797 11.293ZM8.46566 16.95L7.05066 15.536L15.5377 7.05005L16.9517 8.46505L8.46566 16.95Z" fill="#1B2D2B"/>
<path d="M4.22367 19.778C4.68754 20.2425 5.23864 20.6108 5.84529 20.8617C6.45194 21.1126 7.10219 21.2411 7.75867 21.24C8.4153 21.2411 9.06569 21.1125 9.6725 20.8617C10.2793 20.6108 10.8306 20.2425 11.2947 19.778L14.1227 16.949L12.7087 15.535L9.88067 18.364C9.31714 18.925 8.55434 19.2399 7.75917 19.2399C6.964 19.2399 6.2012 18.925 5.63767 18.364C5.07617 17.8007 4.76088 17.0378 4.76088 16.2425C4.76088 15.4471 5.07617 14.6842 5.63767 14.121L8.46667 11.293L7.05267 9.87896L4.22367 12.707C3.28748 13.6454 2.76172 14.9169 2.76172 16.2425C2.76172 17.568 3.28748 18.8395 4.22367 19.778ZM19.7797 11.293C20.7154 10.3542 21.2408 9.08288 21.2408 7.75746C21.2408 6.43204 20.7154 5.16068 19.7797 4.22196C18.8412 3.28577 17.5698 2.76001 16.2442 2.76001C14.9186 2.76001 13.6471 3.28577 12.7087 4.22196L9.88067 7.05096L11.2947 8.46496L14.1227 5.63596C14.6862 5.07495 15.449 4.75999 16.2442 4.75999C17.0393 4.75999 17.8021 5.07495 18.3657 5.63596C18.9272 6.19923 19.2425 6.96213 19.2425 7.75746C19.2425 8.55279 18.9272 9.31569 18.3657 9.87896L15.5367 12.707L16.9507 14.121L19.7797 11.293ZM8.46566 16.95L7.05066 15.536L15.5377 7.05005L16.9517 8.46505L8.46566 16.95Z" fill="#1B2D2B"/>
</svg>
