<svg width="40" height="40" viewBox="0 0 40 40" fill="none" xmlns="http://www.w3.org/2000/svg">
<path opacity="0.1" fill-rule="evenodd" clip-rule="evenodd" d="M20.0007 6.66659C16.4644 6.66659 13.073 8.07134 10.5726 10.5718C8.07208 13.0723 6.66732 16.4637 6.66732 19.9999C6.66732 23.5361 8.07208 26.9275 10.5726 29.428C13.073 31.9285 16.4644 33.3333 20.0007 33.3333C23.5369 33.3333 26.9283 31.9285 29.4287 29.428C31.9292 26.9275 33.334 23.5361 33.334 19.9999C33.334 16.4637 31.9292 13.0723 29.4287 10.5718C26.9283 8.07134 23.5369 6.66659 20.0007 6.66659ZM3.33398 19.9999C3.33398 10.7949 10.7957 3.33325 20.0007 3.33325C29.2057 3.33325 36.6673 10.7949 36.6673 19.9999C36.6673 29.2049 29.2057 36.6666 20.0007 36.6666C10.7957 36.6666 3.33398 29.2049 3.33398 19.9999Z" fill="#1B2D2B"/>
<path fill-rule="evenodd" clip-rule="evenodd" d="M20.0008 6.66661C16.5632 6.65969 13.2571 7.98738 10.7791 10.3699C10.6211 10.5214 10.4348 10.6402 10.2308 10.7197C10.0269 10.7992 9.80926 10.8377 9.59042 10.833C9.37158 10.8284 9.1558 10.7807 8.9554 10.6926C8.755 10.6046 8.5739 10.478 8.42244 10.3199C8.27098 10.1619 8.15213 9.97561 8.07268 9.77165C7.99322 9.5677 7.95472 9.35009 7.95936 9.13125C7.964 8.91242 8.0117 8.69664 8.09974 8.49623C8.18777 8.29583 8.31442 8.11473 8.47244 7.96327C11.5711 4.98596 15.7036 3.32627 20.0008 3.33327C20.4428 3.33327 20.8667 3.50887 21.1793 3.82143C21.4918 4.13399 21.6674 4.55791 21.6674 4.99994C21.6674 5.44197 21.4918 5.86589 21.1793 6.17845C20.8667 6.49101 20.4428 6.66661 20.0008 6.66661Z" fill="#1B2D2B"/>
</svg>
