<svg width="64" height="65" viewBox="0 0 64 65" fill="none" xmlns="http://www.w3.org/2000/svg">
<path d="M26.6667 10.9753C26.6667 9.50251 25.4727 8.30859 24 8.30859H10.6667C9.19392 8.30859 8 9.50251 8 10.9753V24.3086C8 25.7813 9.19392 26.9753 10.6667 26.9753H24C25.4727 26.9753 26.6667 25.7813 26.6667 24.3086V10.9753Z" stroke="#C3D0D3" stroke-width="2.5" stroke-linejoin="round"/>
<path d="M26.6667 40.3085C26.6667 38.8357 25.4727 37.6418 24 37.6418H10.6667C9.19392 37.6418 8 38.8357 8 40.3085V53.6418C8 55.1146 9.19392 56.3085 10.6667 56.3085H24C25.4727 56.3085 26.6667 55.1146 26.6667 53.6418V40.3085Z" stroke="#1B2D2B" stroke-width="2.5" stroke-linejoin="round"/>
<path d="M41.3333 44.3086L48 50.9753L54.6667 44.3086M48 49.3518V29.4734C48 27.8905 47.2971 26.3894 46.0811 25.3761L40 20.3086" stroke="#1B2D2B" stroke-width="2.5" stroke-linecap="round" stroke-linejoin="round"/>
</svg>
