<svg width="64" height="65" viewBox="0 0 64 65" fill="none" xmlns="http://www.w3.org/2000/svg">
<path d="M51.7333 52.0419L58.6667 58.9753M55.2 39.9086C55.2 31.2929 48.2157 24.3086 39.6 24.3086C30.9843 24.3086 24 31.2929 24 39.9086C24 48.5243 30.9843 55.5086 39.6 55.5086C48.2157 55.5086 55.2 48.5243 55.2 39.9086Z" stroke="#1B2D2B" stroke-width="2.5" stroke-linecap="round" stroke-linejoin="round"/>
<path d="M5.3335 16.3085C5.6815 12.7472 6.47003 10.352 8.25683 8.56518C10.0436 6.77838 12.4388 5.98985 16.0002 5.64185M16.0002 58.9752C12.4388 58.6272 10.0436 57.8386 8.25683 56.0517C6.47003 54.265 5.6815 51.8698 5.3335 48.3085M58.6668 16.3085C58.3188 12.7472 57.5303 10.352 55.7434 8.56518C53.9567 6.77838 51.5615 5.98985 48.0002 5.64185M5.3335 26.9752V37.6418M37.3335 5.64185H26.6668" stroke="#C3D0D3" stroke-width="2.5" stroke-linecap="round"/>
</svg>
