<svg width="64" height="65" viewBox="0 0 64 65" fill="none" xmlns="http://www.w3.org/2000/svg">
<path d="M9.75176 42.0602C12.6973 39.1146 14.1701 37.6418 16.0002 37.6418C17.8303 37.6418 19.303 39.1146 22.2486 42.0602C25.1941 45.0056 26.6668 46.4784 26.6668 48.3085C26.6668 50.1386 25.1941 51.6114 22.2486 54.5568C19.303 57.5024 17.8303 58.9752 16.0002 58.9752C14.1701 58.9752 12.6973 57.5024 9.75176 54.5568C6.80624 51.6114 5.3335 50.1386 5.3335 48.3085C5.3335 46.4784 6.80624 45.0056 9.75176 42.0602Z" stroke="#C3D0D3" stroke-width="2.5"/>
<path d="M16 24.3086V37.6419M26.6667 48.3086H40" stroke="#C3D0D3" stroke-width="2.5" stroke-linecap="round" stroke-linejoin="round" stroke-dasharray="5 5"/>
<path d="M6.6665 14.9752C6.6665 10.5754 6.6665 8.37553 8.03333 7.00867C9.40018 5.64185 11.6001 5.64185 15.9998 5.64185C20.3996 5.64185 22.5995 5.64185 23.9663 7.00867C25.3332 8.37553 25.3332 10.5754 25.3332 14.9752C25.3332 19.375 25.3332 21.5748 23.9663 22.9417C22.5995 24.3085 20.3996 24.3085 15.9998 24.3085C11.6001 24.3085 9.40018 24.3085 8.03333 22.9417C6.6665 21.5748 6.6665 19.375 6.6665 14.9752Z" stroke="#1B2D2B" stroke-width="2.5"/>
<path d="M40 48.3087C40 43.9089 40 41.7089 41.3669 40.3423C42.7336 38.9753 44.9336 38.9753 49.3333 38.9753C53.7331 38.9753 55.9331 38.9753 57.2997 40.3423C58.6667 41.7089 58.6667 43.9089 58.6667 48.3087C58.6667 52.7084 58.6667 54.9084 57.2997 56.2751C55.9331 57.642 53.7331 57.642 49.3333 57.642C44.9336 57.642 42.7336 57.642 41.3669 56.2751C40 54.9084 40 52.7084 40 48.3087Z" stroke="#1B2D2B" stroke-width="2.5"/>
</svg>
