<svg width="84" height="28" viewBox="0 0 84 28" fill="none" xmlns="http://www.w3.org/2000/svg">
<path d="M21.5527 1.98779L2.09375 3.06378V22.6077L5.30808 25.4973L24.7671 24.4213V4.87739L21.5527 1.98779Z" fill="#136CFF"/>
<path fill-rule="evenodd" clip-rule="evenodd" d="M21.5528 1.98779L2.09375 3.06378L5.30809 5.95338L24.7672 4.87739L21.5528 1.98779Z" fill="#60A5FA"/>
<path fill-rule="evenodd" clip-rule="evenodd" d="M5.30809 5.95357L2.09375 3.06396V22.6079L5.30809 25.4975V5.95357Z" fill="#0057E5"/>
<path d="M39.8175 11.4128C39.7746 11.0111 39.5937 10.6984 39.2748 10.4746C38.959 10.2507 38.5481 10.1388 38.0422 10.1388C37.6865 10.1388 37.3815 10.1925 37.127 10.2998C36.8725 10.4071 36.6778 10.5527 36.5429 10.7367C36.408 10.9207 36.339 11.1307 36.3359 11.3668C36.3359 11.563 36.3804 11.7332 36.4693 11.8773C36.5613 12.0214 36.6854 12.1441 36.8418 12.2453C36.9982 12.3434 37.1714 12.4262 37.3615 12.4936C37.5516 12.5611 37.7433 12.6178 37.9364 12.6638L38.8195 12.8846C39.1752 12.9673 39.517 13.0793 39.8451 13.2203C40.1763 13.3614 40.4722 13.5392 40.7328 13.7538C40.9965 13.9685 41.205 14.2275 41.3583 14.5311C41.5116 14.8346 41.5882 15.1903 41.5882 15.5981C41.5882 16.15 41.4472 16.636 41.1651 17.0561C40.883 17.4731 40.4752 17.7996 39.9417 18.0357C39.4113 18.2687 38.7689 18.3853 38.0146 18.3853C37.2818 18.3853 36.6456 18.2718 36.1059 18.0449C35.5694 17.818 35.1493 17.4869 34.8458 17.0515C34.5453 16.6161 34.3828 16.0856 34.3582 15.4601H36.037C36.0615 15.7882 36.1627 16.0611 36.3405 16.2788C36.5183 16.4965 36.7498 16.659 37.035 16.7663C37.3232 16.8736 37.6452 16.9273 38.0008 16.9273C38.3718 16.9273 38.6968 16.8721 38.9759 16.7617C39.258 16.6483 39.4787 16.4919 39.6382 16.2926C39.7976 16.0902 39.8789 15.8541 39.8819 15.5843C39.8789 15.339 39.8068 15.1367 39.6658 14.9772C39.5247 14.8147 39.3269 14.6798 39.0725 14.5725C38.821 14.4621 38.5267 14.364 38.1894 14.2781L37.1178 14.0022C36.342 13.8029 35.7288 13.5009 35.2781 13.0961C34.8304 12.6883 34.6066 12.1472 34.6066 11.4726C34.6066 10.9176 34.7568 10.4316 35.0573 10.0146C35.3609 9.59764 35.7733 9.27416 36.2945 9.0442C36.8158 8.81117 37.406 8.69466 38.0652 8.69466C38.7336 8.69466 39.3193 8.81117 39.8221 9.0442C40.328 9.27416 40.7251 9.59458 41.0133 10.0054C41.3015 10.4132 41.4503 10.8824 41.4595 11.4128H39.8175ZM42.9581 20.8918V11.1782H44.5955V12.3465H44.692C44.7779 12.1747 44.899 11.9923 45.0554 11.7991C45.2118 11.6029 45.4233 11.4358 45.6901 11.2978C45.9568 11.1568 46.2972 11.0863 46.7111 11.0863C47.2569 11.0863 47.749 11.2258 48.1875 11.5048C48.629 11.7807 48.9785 12.1901 49.2361 12.7328C49.4967 13.2724 49.627 13.9347 49.627 14.7197C49.627 15.4954 49.4998 16.1546 49.2453 16.6973C48.9908 17.24 48.6443 17.654 48.2059 17.9391C47.7674 18.2243 47.2707 18.3669 46.7157 18.3669C46.311 18.3669 45.9752 18.2994 45.7085 18.1645C45.4417 18.0296 45.2271 17.8671 45.0646 17.677C44.9051 17.4838 44.781 17.3014 44.692 17.1297H44.6231V20.8918H42.9581ZM44.5909 14.7105C44.5909 15.1673 44.6553 15.5675 44.784 15.9109C44.9159 16.2543 45.1044 16.5226 45.3497 16.7157C45.5981 16.9058 45.8986 17.0009 46.2512 17.0009C46.6191 17.0009 46.9273 16.9028 47.1756 16.7065C47.424 16.5072 47.611 16.2359 47.7367 15.8925C47.8655 15.546 47.9299 15.152 47.9299 14.7105C47.9299 14.272 47.8671 13.8826 47.7413 13.5423C47.6156 13.2019 47.4286 12.9352 47.1802 12.742C46.9319 12.5488 46.6222 12.4522 46.2512 12.4522C45.8955 12.4522 45.5935 12.5458 45.3451 12.7328C45.0968 12.9198 44.9082 13.182 44.7794 13.5193C44.6537 13.8565 44.5909 14.2536 44.5909 14.7105ZM54.1026 18.3807C53.3943 18.3807 52.7826 18.2335 52.2675 17.9391C51.7554 17.6417 51.3614 17.2216 51.0855 16.6789C50.8095 16.1332 50.6715 15.4908 50.6715 14.7519C50.6715 14.0252 50.8095 13.3874 51.0855 12.8386C51.3645 12.2867 51.7539 11.8574 52.2537 11.5508C52.7535 11.2411 53.3406 11.0863 54.0152 11.0863C54.4506 11.0863 54.8614 11.1568 55.2478 11.2978C55.6372 11.4358 55.9806 11.6504 56.278 11.9417C56.5785 12.233 56.8146 12.604 56.9863 13.0547C57.158 13.5024 57.2438 14.0359 57.2438 14.6553V15.1658H51.4534V14.0436H55.6479C55.6448 13.7247 55.5759 13.4411 55.4409 13.1927C55.306 12.9413 55.1175 12.7435 54.8752 12.5994C54.6361 12.4553 54.3571 12.3832 54.0382 12.3832C53.6978 12.3832 53.3989 12.466 53.1413 12.6316C52.8838 12.7941 52.6829 13.0087 52.5388 13.2755C52.3978 13.5392 52.3257 13.8289 52.3227 14.1448V15.1244C52.3227 15.5353 52.3978 15.8879 52.548 16.1822C52.6983 16.4735 52.9083 16.6973 53.1781 16.8537C53.4479 17.007 53.7638 17.0837 54.1256 17.0837C54.3678 17.0837 54.587 17.0499 54.7833 16.9825C54.9795 16.912 55.1497 16.8092 55.2938 16.6743C55.4379 16.5394 55.5467 16.3723 55.6203 16.173L57.1749 16.3478C57.0767 16.7587 56.8897 17.1174 56.6138 17.424C56.3409 17.7276 55.9913 17.9637 55.5651 18.1323C55.1389 18.2979 54.6514 18.3807 54.1026 18.3807ZM61.6561 18.3807C60.9509 18.3807 60.3454 18.2258 59.8394 17.9161C59.3366 17.6064 58.9487 17.1787 58.6758 16.6329C58.406 16.0841 58.2711 15.4525 58.2711 14.7381C58.2711 14.0206 58.4091 13.3874 58.685 12.8386C58.961 12.2867 59.3504 11.8574 59.8532 11.5508C60.3592 11.2411 60.9571 11.0863 61.6469 11.0863C62.2203 11.0863 62.7278 11.192 63.1693 11.4036C63.6139 11.6121 63.968 11.908 64.2317 12.2913C64.4954 12.6715 64.6456 13.1161 64.6824 13.625H63.0911C63.0267 13.2847 62.8734 13.0011 62.6312 12.7742C62.392 12.5442 62.0716 12.4292 61.6699 12.4292C61.3296 12.4292 61.0306 12.5212 60.7731 12.7052C60.5155 12.8861 60.3147 13.1467 60.1706 13.4871C60.0295 13.8274 59.959 14.2352 59.959 14.7105C59.959 15.1918 60.0295 15.6058 60.1706 15.9523C60.3116 16.2957 60.5094 16.5609 60.7639 16.7479C61.0214 16.9319 61.3235 17.0239 61.6699 17.0239C61.9152 17.0239 62.1345 16.9779 62.3276 16.8859C62.5239 16.7908 62.6879 16.6544 62.8198 16.4766C62.9516 16.2987 63.042 16.0826 63.0911 15.8281H64.6824C64.6426 16.3279 64.4954 16.7709 64.2409 17.1573C63.9864 17.5405 63.6399 17.841 63.2015 18.0587C62.763 18.2733 62.2479 18.3807 61.6561 18.3807ZM67.4896 16.0258L67.485 14.016H67.7518L70.2905 11.1782H72.236L69.1131 14.6553H68.7682L67.4896 16.0258ZM65.9719 18.2427V8.82344H67.6368V18.2427H65.9719ZM70.4055 18.2427L68.1059 15.0278L69.2281 13.855L72.397 18.2427H70.4055ZM74.9328 8.82344V18.2427H73.2679V8.82344H74.9328ZM79.6946 18.3807C78.9864 18.3807 78.3747 18.2335 77.8595 17.9391C77.3475 17.6417 76.9535 17.2216 76.6775 16.6789C76.4016 16.1332 76.2636 15.4908 76.2636 14.7519C76.2636 14.0252 76.4016 13.3874 76.6775 12.8386C76.9566 12.2867 77.346 11.8574 77.8457 11.5508C78.3455 11.2411 78.9327 11.0863 79.6073 11.0863C80.0426 11.0863 80.4535 11.1568 80.8399 11.2978C81.2293 11.4358 81.5727 11.6504 81.8701 11.9417C82.1706 12.233 82.4067 12.604 82.5784 13.0547C82.7501 13.5024 82.8359 14.0359 82.8359 14.6553V15.1658H77.0455V14.0436H81.24C81.2369 13.7247 81.1679 13.4411 81.033 13.1927C80.8981 12.9413 80.7095 12.7435 80.4673 12.5994C80.2282 12.4553 79.9491 12.3832 79.6303 12.3832C79.2899 12.3832 78.991 12.466 78.7334 12.6316C78.4758 12.7941 78.275 13.0087 78.1309 13.2755C77.9899 13.5392 77.9178 13.8289 77.9147 14.1448V15.1244C77.9147 15.5353 77.9899 15.8879 78.1401 16.1822C78.2903 16.4735 78.5004 16.6973 78.7702 16.8537C79.04 17.007 79.3558 17.0837 79.7176 17.0837C79.9599 17.0837 80.1791 17.0499 80.3753 16.9825C80.5716 16.912 80.7417 16.8092 80.8858 16.6743C81.03 16.5394 81.1388 16.3723 81.2124 16.173L82.7669 16.3478C82.6688 16.7587 82.4818 17.1174 82.2058 17.424C81.9329 17.7276 81.5834 17.9637 81.1572 18.1323C80.731 18.2979 80.2435 18.3807 79.6946 18.3807Z" fill="black"/>
</svg>
