<svg width="37" height="46" viewBox="0 0 37 46" fill="none" xmlns="http://www.w3.org/2000/svg">
<path d="M14.4966 45.1875V37.0057L21.5822 32.9148V24.7329L28.6679 20.642V12.4602L35.7536 8.3693V32.9148L14.4966 45.1875Z" stroke="black" stroke-width="0.375"/>
<rect width="16.3636" height="8.18182" transform="matrix(0.866025 0.5 0 1 0.325195 28.8239)" stroke="black" stroke-width="0.375"/>
<rect width="16.3636" height="8.18182" transform="matrix(0.866025 0.5 -0.866025 0.5 7.41064 24.733)" stroke="black" stroke-width="0.375"/>
<rect width="16.3636" height="8.18182" transform="matrix(0.866025 0.5 0 1 7.41064 16.5511)" stroke="black" stroke-width="0.375"/>
<rect width="16.3636" height="8.18182" transform="matrix(0.866025 0.5 -0.866025 0.5 14.4966 12.4602)" stroke="black" stroke-width="0.375"/>
<rect width="16.3636" height="8.18182" transform="matrix(0.866025 0.5 0 1 14.4966 4.27838)" stroke="black" stroke-width="0.375"/>
<rect width="16.3636" height="8.18182" transform="matrix(0.866025 0.5 -0.866025 0.5 21.582 0.1875)" stroke="black" stroke-width="0.375"/>
</svg>
