<svg width="14" height="14" viewBox="0 0 14 14" fill="none" xmlns="http://www.w3.org/2000/svg">
<path d="M6.74839 0.668948C6.84742 0.443684 7.15258 0.443684 7.25161 0.668948L8.96765 4.57218C9.00801 4.66399 9.09094 4.7272 9.18664 4.73911L13.2552 5.24521C13.49 5.27442 13.5843 5.57891 13.4107 5.74734L10.4027 8.66577C10.332 8.73442 10.3003 8.8367 10.3191 8.93587L11.1175 13.1519C11.1636 13.3952 10.9167 13.5834 10.7104 13.4622L7.13534 11.3627C7.05125 11.3133 6.94875 11.3133 6.86466 11.3627L3.28958 13.4622C3.08326 13.5834 2.83638 13.3952 2.88246 13.1519L3.68093 8.93587C3.69971 8.8367 3.66804 8.73442 3.59729 8.66577L0.589297 5.74734C0.415699 5.57891 0.509998 5.27442 0.744803 5.24521L4.81336 4.73911C4.90906 4.7272 4.99199 4.66399 5.03235 4.57218L6.74839 0.668948Z" fill="#4F46E5"/>
</svg>
