<svg width="88" height="89" viewBox="0 0 88 89" fill="none" xmlns="http://www.w3.org/2000/svg">
<path d="M68.2098 43.4014L57.5682 53.7527C57.1146 54.2245 56.8786 54.6871 56.8514 55.168V65.5919L32.6379 74.2014C31.6036 74.5915 30.533 74.7366 29.4172 74.6459C28.2922 74.5552 27.3124 74.265 26.4596 73.7751L24.9175 72.8859C24.0647 72.396 23.5655 71.8063 23.4113 71.1259C23.3931 71.0261 23.3841 70.9354 23.375 70.8447V52.7911C23.3841 52.8546 23.3931 52.9181 23.4113 52.9816C23.5655 53.662 24.0647 54.2517 24.9175 54.7416L26.4596 55.6307C27.3124 56.1206 28.2922 56.4109 29.4172 56.5016C30.533 56.5923 31.6036 56.4471 32.6379 56.057L43.089 52.3374L63.6646 45.0162L68.2098 43.4014Z" fill="#241421" stroke="#51384E" stroke-width="0.247423" stroke-linecap="round" stroke-linejoin="round"/>
<path d="M85.947 36.5153V37.1232C85.8744 37.5314 85.6385 37.9215 85.2303 38.3025L69.0091 54.2605L68.4468 54.8139L76.4573 59.4406C77.4825 60.0303 77.9998 60.7288 78.0088 61.5363C78.0088 62.3437 77.5006 63.0332 76.4755 63.6319C75.4503 64.2216 74.2437 64.512 72.8557 64.512C71.4676 64.512 70.252 64.2126 69.2177 63.6139L67.2492 62.4708L66.6141 62.1078L59.1205 57.7805L58.3947 57.3632C57.542 56.8733 57.0431 56.3017 56.8888 55.6576C56.8526 55.5215 56.8434 55.3945 56.8434 55.2584V55.1677C56.8706 54.6869 57.1066 54.2242 57.5602 53.7524L68.2017 43.401L63.6566 45.0159L43.081 52.3372L32.6299 56.0568C31.5956 56.4469 30.525 56.592 29.4092 56.5013C28.2842 56.4106 27.3044 56.1203 26.4516 55.6304L24.9095 54.7412C24.0567 54.2513 23.5575 53.6616 23.4033 52.9812C23.3852 52.9177 23.3761 52.8543 23.367 52.7908C23.3035 52.1829 23.5667 51.6114 24.1654 51.0671L27.1775 48.3816L40.7131 36.3066L61.8967 17.4093L20.9811 32.5236C19.956 32.9046 18.8493 33.0588 17.6699 32.9681C16.4905 32.8774 15.4743 32.5871 14.6306 32.0972L3.70767 25.792C2.67344 25.1933 2.15637 24.4947 2.15637 23.6964C2.1473 22.8889 2.66435 22.1904 3.68951 21.6007C4.70559 21.011 5.92125 20.7116 7.30929 20.7207C8.69733 20.7207 9.91299 21.02 10.9381 21.6187L18.949 26.2366L72.9011 6.22334C73.9263 5.84231 74.9968 5.69717 76.1217 5.78789C77.2376 5.87861 78.2174 6.16888 79.0702 6.65878L80.6125 7.54789C81.4652 8.03779 81.9552 8.61839 82.0732 9.28066V9.87939C82.0006 10.3239 81.7283 10.7594 81.2747 11.1677L61.8876 28.4502L48.2794 40.5887L42.8179 45.4514L56.1176 40.7067L76.5844 33.4125C76.6298 33.3944 76.6751 33.3764 76.7204 33.3673C77.6458 33.0588 78.6619 32.9227 79.7597 32.9953C80.9028 33.0679 81.9099 33.3491 82.7536 33.839L84.4863 34.8369C85.33 35.3268 85.82 35.8893 85.947 36.5153Z" fill="#241421" stroke="#51384E" stroke-width="0.247423" stroke-linecap="round" stroke-linejoin="round"/>
<path d="M82.0781 9.87901V9.28027C82.1144 9.47986 82.1235 9.68849 82.0781 9.87901Z" fill="#241421" stroke="#51384E" stroke-width="0.247423" stroke-linecap="round" stroke-linejoin="round"/>
<path d="M85.9531 37.1235V36.5156C85.9894 36.7243 85.9894 36.9239 85.9531 37.1235Z" fill="#241421" stroke="#51384E" stroke-width="0.247423" stroke-linecap="round" stroke-linejoin="round"/>
<path d="M81.2771 29.3125L76.7228 33.3677C76.7228 33.3677 76.6322 33.3949 76.5868 33.4131L56.12 40.7071L42.8203 45.4518L48.2818 40.5892L61.89 28.4506L81.2771 11.1682C81.7307 10.7599 82.003 10.3244 82.0756 9.87988V27.4254C82.2026 28.0877 81.9394 28.7137 81.2771 29.3125Z" fill="#241421" stroke="#51384E" stroke-width="0.247423" stroke-linecap="round" stroke-linejoin="round"/>
<path d="M85.2366 56.4468L78.0152 63.5503V61.5362C78.0061 60.7288 77.4888 60.0303 76.4637 59.4406L68.4531 54.8138L69.0154 54.2604L85.2366 38.3024C85.6449 37.9214 85.8808 37.5313 85.9533 37.123V54.6595C86.0713 55.2946 85.8354 55.8843 85.2366 56.4468Z" fill="#241421" stroke="#51384E" stroke-width="0.247423" stroke-linecap="round" stroke-linejoin="round"/>
<path d="M78.0092 61.5357V79.6801C78.0092 80.4875 77.501 81.177 76.4758 81.7757C75.4507 82.3654 74.2441 82.6558 72.856 82.6558C71.468 82.6558 70.2523 82.3565 69.2181 81.7577L58.3951 75.5069C57.5423 75.017 57.0434 74.4454 56.8892 73.8013C56.8711 73.7015 56.8528 73.6017 56.8438 73.5019V55.2578C56.8438 55.3939 56.8529 55.5209 56.8892 55.657C57.0434 56.3011 57.5423 56.8727 58.3951 57.3626L59.1209 57.78L66.6146 62.1073L67.2495 62.4702L69.2181 63.6134C70.2523 64.2121 71.4589 64.5114 72.856 64.5114C74.2531 64.5114 75.4507 64.2211 76.4758 63.6314C77.501 63.0327 78.0092 62.3432 78.0092 61.5357Z" fill="#241421" stroke="#51384E" stroke-width="0.247423" stroke-linecap="round" stroke-linejoin="round"/>
<path d="M61.9044 17.4092L40.7208 36.3065L27.1852 48.3816L20.9888 50.6677C19.9636 51.0488 18.8569 51.203 17.6776 51.1123C16.4982 51.0216 15.482 50.7312 14.6383 50.2413L3.71537 43.9362C2.68114 43.3374 2.16406 42.6389 2.16406 41.8405V23.6962C2.16406 24.4945 2.68114 25.1931 3.71537 25.7919L14.6383 32.097C15.482 32.5869 16.4982 32.8772 17.6776 32.9679C18.8569 33.0587 19.9636 32.9044 20.9888 32.5234L61.9044 17.4092Z" fill="#241421" stroke="#51384E" stroke-width="0.247423" stroke-linecap="round" stroke-linejoin="round"/>
<path d="M23.375 52.7904V52.5273V52.7904Z" fill="#241421"/>
<path d="M23.375 52.7904V52.5273" stroke="#51384E" stroke-width="0.247423" stroke-linecap="round" stroke-linejoin="round"/>
</svg>
