<svg width="16" height="17" viewBox="0 0 16 17" fill="none" xmlns="http://www.w3.org/2000/svg">
<path d="M5.5249 4.90762L11.8999 4.90762L11.8999 11.3076C11.8999 11.4667 11.9631 11.6194 12.0756 11.7319C12.1882 11.8444 12.3408 11.9076 12.4999 11.9076C12.659 11.9076 12.8116 11.8444 12.9242 11.7319C13.0367 11.6194 13.0999 11.4667 13.0999 11.3076L13.0999 4.30762C13.0999 4.14849 13.0367 3.99587 12.9242 3.88335C12.8116 3.77083 12.659 3.70762 12.4999 3.70762L5.5249 3.70762C5.36577 3.70762 5.21316 3.77083 5.10064 3.88335C4.98812 3.99587 4.9249 4.14849 4.9249 4.30762C4.9249 4.46675 4.98812 4.61936 5.10064 4.73188C5.21316 4.8444 5.36577 4.90762 5.5249 4.90762Z" fill="#1B2D2B" stroke="#1B2D2B" stroke-width="0.2"/>
<path d="M12.5006 3.70762C12.3413 3.70762 12.1886 3.7709 12.0759 3.88354L3.57592 12.3835C3.52015 12.4393 3.47591 12.5055 3.44572 12.5784C3.41554 12.6513 3.4 12.7294 3.4 12.8082C3.4 12.8871 3.41554 12.9652 3.44572 13.0381C3.47591 13.111 3.52015 13.1772 3.57592 13.233C3.63169 13.2887 3.69791 13.333 3.77078 13.3632C3.84365 13.3933 3.92176 13.4089 4.00063 13.4089C4.07951 13.4089 4.15761 13.3933 4.23048 13.3632C4.30336 13.333 4.36957 13.2887 4.42534 13.233L12.9253 4.73296C13.038 4.62032 13.1013 4.46755 13.1013 4.30825C13.1013 4.14895 13.038 3.99618 12.9253 3.88354C12.8127 3.7709 12.6599 3.70762 12.5006 3.70762Z" fill="#1B2D2B" stroke="#1B2D2B" stroke-width="0.2"/>
</svg>
