<svg width="35" height="40" viewBox="0 0 35 40" fill="none" xmlns="http://www.w3.org/2000/svg">
<path d="M34.457 20.0001V10.1112C34.457 10.0313 34.4154 9.95838 34.3459 9.91845L17.3405 0.029514C17.3127 0.0138891 17.2815 0.00868058 17.2502 0.00520857C17.2433 0.00520857 17.2364 0 17.2294 0C17.2068 0 17.186 0.0104169 17.1634 0.017361C17.1478 0.0225694 17.1322 0.0208335 17.1183 0.029514L8.61471 4.97398C8.547 5.01391 8.50359 5.08683 8.50359 5.16669V14.9272L0.111112 19.8072C0.0434046 19.8471 0 19.92 0 19.9999V29.8888C0 29.9288 0.0104166 29.967 0.029514 30C0.0329865 30.0069 0.0416671 30.0104 0.0451395 30.0156C0.0625005 30.0399 0.0833336 30.0642 0.109375 30.0798L17.1148 39.9688C17.1512 39.9896 17.1912 40 17.2294 40C17.2676 40 17.3075 39.9896 17.3405 39.9705L25.8423 35.026C25.8701 35.0104 25.8892 34.9861 25.9065 34.9618C25.9117 34.9548 25.9187 34.9531 25.9222 34.9462C25.9413 34.9132 25.9517 34.875 25.9517 34.835L25.9534 25.0728L34.3459 20.1928C34.3511 20.1893 34.3546 20.1841 34.358 20.1806C34.3806 20.165 34.398 20.1476 34.4136 20.125C34.4188 20.1164 34.424 20.1112 34.4292 20.1025C34.4449 20.0695 34.457 20.0365 34.457 20.0001ZM34.0126 10.2396V19.6148L25.9552 14.929V5.55202L34.0126 10.2396ZM8.50359 25.3317V34.4482L0.666668 29.889L8.50359 25.3317ZM17.4516 29.7605V20.3853L25.509 25.0711V34.4463L17.4516 29.7605ZM25.2903 5.1666L17.4516 9.72573V0.607468L25.2903 5.1666ZM8.83871 15.2484C8.84739 15.2432 8.85086 15.2363 8.85954 15.2311C8.87169 15.2224 8.88384 15.212 8.89426 15.2015C8.90294 15.1911 8.90989 15.179 8.91857 15.1668C8.92551 15.1547 8.93246 15.1425 8.93593 15.1286C8.94114 15.1147 8.94287 15.0991 8.94461 15.0835C8.94634 15.0748 8.94982 15.0661 8.94982 15.0575V5.29518L17.0072 0.607607V10.1112C17.0072 10.1164 17.0089 10.1199 17.0107 10.1251C17.0124 10.139 17.0159 10.1529 17.0193 10.1685C17.0228 10.1824 17.0263 10.198 17.0332 10.2102C17.035 10.2136 17.035 10.2188 17.0384 10.2223C17.0436 10.231 17.0506 10.2345 17.0558 10.2432C17.0645 10.2553 17.0749 10.2675 17.087 10.2779C17.0975 10.2866 17.1096 10.2935 17.12 10.3004C17.1322 10.3074 17.1443 10.3143 17.16 10.3195C17.1739 10.3247 17.1877 10.3265 17.2016 10.3282C17.2103 10.3282 17.219 10.3334 17.2294 10.3334C17.2346 10.3334 17.2381 10.33 17.2433 10.33C17.2572 10.3282 17.2711 10.3247 17.2832 10.3213C17.2989 10.3178 17.3127 10.3126 17.3284 10.3074C17.3318 10.3057 17.337 10.3057 17.3405 10.3022L25.509 5.55194V14.9271L17.1183 19.8071C17.1096 19.8123 17.1061 19.8193 17.0975 19.8245C17.0853 19.8332 17.0732 19.8436 17.0627 19.8557C17.0558 19.8644 17.0506 19.8713 17.0436 19.88C17.0419 19.8835 17.0384 19.8852 17.0367 19.887C17.035 19.8904 17.035 19.8939 17.0332 19.8974C17.028 19.9061 17.0245 19.9165 17.0211 19.9269C17.0159 19.9408 17.0141 19.9564 17.0124 19.972C17.0107 19.9825 17.0072 19.9911 17.0072 19.9998V29.7603L8.94804 34.4479V24.9443C8.94804 24.9391 8.9463 24.9373 8.9463 24.9321C8.9463 24.9165 8.94109 24.9009 8.93589 24.8835C8.93241 24.8714 8.92894 24.8575 8.92373 24.8453C8.922 24.8401 8.922 24.8366 8.91852 24.8314C8.91331 24.8228 8.90463 24.8175 8.89943 24.8089C8.89075 24.7967 8.88206 24.7863 8.87165 24.7759C8.8595 24.7655 8.84734 24.7585 8.83519 24.7516C8.82477 24.7446 8.81262 24.7394 8.80047 24.7342C8.78484 24.729 8.76922 24.7255 8.75185 24.7238C8.74317 24.7221 8.73623 24.7186 8.72755 24.7186C8.72234 24.7186 8.71887 24.7203 8.7154 24.7221C8.69977 24.7238 8.68588 24.7273 8.67026 24.7307C8.65637 24.7342 8.64248 24.7377 8.62859 24.7446C8.62512 24.7464 8.61991 24.7464 8.61644 24.7498L0.447956 29.5001L0.446219 20.1285L8.83871 15.2484ZM17.2294 39.521L9.16848 34.8334L17.2294 30.1458L25.2903 34.8334L17.2294 39.521ZM25.733 24.6876L17.6703 20L25.7312 15.3124L33.7939 20L25.733 24.6876Z" fill="black"/>
</svg>
