<svg width="64" height="64" viewBox="0 0 64 64" fill="none" xmlns="http://www.w3.org/2000/svg">
<path fill-rule="evenodd" clip-rule="evenodd" d="M17.109 30.6667H4V14.6667H20V26.8889L26.6667 14.6667H38.6667L37.4816 27.7038L44 14.6667H60L42.6667 49.3334H26.6667L34.22 34.2267C27.1547 43.6476 15.9972 49.3334 4 49.3334V36.0001C9.55035 34.8899 14.1765 32.8558 17.109 30.6667Z" fill="#C3D0D3"/>
<path d="M26.6667 14.6667L20 26.8889C18.6667 29.3334 18.374 29.5839 17.109 30.6667C15.844 31.7496 9.55035 34.8899 4 36.0001V49.3334C15.9972 49.3334 27.1547 43.6475 34.22 34.2267L26.6667 49.3334H42.6667L60 14.6667H44L37.4816 27.7038L38.6667 14.6667H26.6667Z" fill="#1B2D2B"/>
</svg>
