<svg width="512" height="512" viewBox="0 0 512 512" fill="none" xmlns="http://www.w3.org/2000/svg">
<rect width="512" height="512" fill="#5222FF"/>
<path d="M188.644 239.244V184.311L207.01 182.955V234.775C207.01 238.706 207.972 242.277 209.917 245.49C211.862 248.722 214.449 251.277 217.697 253.172C220.945 255.068 224.494 256.026 228.383 256.026C232.334 256.026 235.903 255.068 239.111 253.172C242.32 251.277 244.886 248.702 246.79 245.49C248.695 242.277 249.658 238.686 249.658 234.775V184.311L268.025 182.955L268.104 274.064H249.737L249.658 262.71C246.65 266.342 242.92 269.214 238.449 271.33C233.979 273.445 229.185 274.482 224.053 274.482C217.517 274.482 211.561 272.907 206.208 269.734C200.855 266.561 196.584 262.331 193.395 256.983C190.207 251.636 188.644 245.749 188.644 239.244Z" fill="white"/>
<path d="M356.371 140.371L374.737 138.994V274.081L356.371 274.062V259.275C353.484 263.846 349.713 267.516 345.062 270.31C340.411 273.084 334.957 274.48 328.721 274.48C322.304 274.48 316.289 273.284 310.695 270.87C305.101 268.475 300.169 265.142 295.899 260.892C291.627 256.642 288.279 251.733 285.873 246.166C283.467 240.599 282.243 234.633 282.243 228.228C282.243 221.842 283.447 215.856 285.873 210.249C288.279 204.662 291.627 199.734 295.899 195.483C300.169 191.233 305.101 187.921 310.695 185.506C316.289 183.112 322.285 181.895 328.721 181.895C334.957 181.895 340.411 183.292 345.062 186.065C349.713 188.839 353.484 192.49 356.371 197V140.371ZM328.902 256.822C334.074 256.822 338.606 255.544 342.496 252.99C346.386 250.436 349.392 247.004 351.539 242.654C353.684 238.324 354.767 233.515 354.767 228.248C354.767 222.92 353.684 218.091 351.498 213.741C349.313 209.411 346.305 205.959 342.456 203.405C338.606 200.851 334.074 199.574 328.902 199.574C323.789 199.574 319.117 200.871 314.906 203.445C310.695 206.019 307.346 209.471 304.84 213.821C302.335 218.151 301.091 222.96 301.091 228.228C301.091 233.555 302.374 238.384 304.941 242.694C307.508 247.004 310.895 250.436 315.106 252.97C319.317 255.505 323.889 256.822 328.902 256.822Z" fill="white"/>
<path d="M68.5421 273.98V131.072L50.1758 132.409V273.98H68.5421Z" fill="white"/>
<path d="M141.428 274.162V294.535L166.33 292.719V312.393L141.428 309.859V381.453L123.061 379.498V308.003L112.555 306.927V296.649L123.061 295.871V274.162C123.061 269.353 124.244 264.982 126.59 261.031C128.936 257.081 132.104 253.928 136.074 251.574C140.044 249.239 144.475 248.062 149.368 248.062C152.897 248.062 156.345 248.76 159.694 250.177C163.042 251.594 166.049 253.749 168.696 256.682L155.544 269.592C154.902 268.534 154 267.737 152.857 267.177C151.714 266.619 150.551 266.339 149.368 266.339C147.182 266.339 145.318 267.098 143.754 268.634C142.21 270.152 141.428 271.987 141.428 274.162Z" fill="white"/>
<path d="M249.519 290.265L250.443 304.771C247.194 300.261 243.123 296.551 238.211 293.657C233.299 290.763 227.625 289.308 221.208 289.308C214.912 289.308 208.997 290.484 203.503 292.858C198.009 295.234 193.158 298.505 188.966 302.656C184.777 306.806 181.528 311.656 179.162 317.203C176.817 322.729 175.634 328.636 175.634 334.922C175.634 341.426 176.836 347.512 179.262 353.159C181.668 358.807 185.058 363.815 189.368 368.145C193.698 372.475 198.711 375.867 204.426 378.301C210.14 380.735 216.235 381.952 222.712 381.952C228.727 381.952 233.921 380.575 238.351 377.822C242.762 375.069 246.272 371.437 248.858 366.928L249.56 379.678L268.026 381.534V290.265H249.519ZM244.908 350.146C242.762 354.476 239.734 357.929 235.866 360.482C231.976 363.037 227.444 364.313 222.271 364.313C217.259 364.313 212.667 363.037 208.456 360.482C204.246 357.929 200.856 354.496 198.29 350.206C195.724 345.897 194.441 341.087 194.441 335.74C194.441 330.472 195.684 325.663 198.15 321.333C200.616 317.003 203.984 313.531 208.216 310.957C212.446 308.383 217.138 307.085 222.251 307.085C227.423 307.085 231.955 308.363 235.804 310.917C239.655 313.471 242.683 316.903 244.847 321.254C247.034 325.582 248.115 330.432 248.115 335.76C248.136 340.987 247.073 345.797 244.908 350.146Z" fill="white"/>
<path d="M345.101 354.715L364.932 356.671C362.325 365.869 353.063 373.272 346.305 376.944C340.15 380.296 333.492 381.952 326.294 381.952C318.174 381.952 310.755 379.878 304.078 375.708C297.402 371.537 292.068 365.969 288.097 358.966C284.129 351.962 282.144 344.22 282.144 335.719C282.144 329.275 283.286 323.249 285.593 317.661C287.897 312.074 291.046 307.146 295.095 302.895C299.125 298.646 303.817 295.332 309.191 292.918C314.545 290.525 320.26 289.308 326.315 289.308C333.492 289.308 340.23 290.863 346.325 294.316C353.001 298.087 361.844 304.451 364.953 315.187L345.122 316.644C342.656 313.71 339.769 311.475 336.46 309.919C333.173 308.363 329.783 307.585 326.294 307.585C321.462 307.585 317.092 308.881 313.181 311.496C309.272 314.109 306.164 317.522 303.919 321.772C301.653 326.021 300.51 330.671 300.51 335.7C300.51 340.689 301.653 345.298 303.957 349.548C306.244 353.797 309.351 357.21 313.281 359.785C317.192 362.357 321.543 363.655 326.315 363.655C329.964 363.655 333.433 362.837 336.741 361.2C340.009 359.565 342.816 357.409 345.101 354.715Z" fill="white"/>
<path d="M418.065 381.952C409.944 381.952 402.525 379.878 395.848 375.708C389.171 371.537 383.839 365.969 379.868 358.966C375.898 351.962 373.913 344.22 373.913 335.719C373.913 329.275 375.056 323.249 377.362 317.661C379.668 312.074 382.816 307.146 386.866 302.895C390.896 298.646 395.588 295.332 400.961 292.918C406.314 290.525 412.029 289.308 418.085 289.308C424.862 289.308 431.057 290.704 436.711 293.478C442.366 296.251 447.198 300.102 451.188 304.99C455.199 309.879 458.126 315.507 460.011 321.872C461.895 328.237 462.456 334.982 461.695 342.125H393.582C394.345 346.176 395.829 349.807 398.033 353.059C400.24 356.311 403.067 358.886 406.516 360.742C409.963 362.617 413.793 363.576 418.044 363.635C422.517 363.635 426.587 362.517 430.275 360.303C433.945 358.067 435.668 355.932 436.892 354.536L457.384 356.612C453.514 364.354 449.083 369.541 441.964 374.489C434.866 379.478 426.887 381.952 418.065 381.952ZM392.982 328.156H443.147C442.566 323.947 441.062 320.116 438.696 316.683C436.311 313.252 433.343 310.537 429.774 308.502C426.206 306.488 422.315 305.47 418.065 305.47C413.893 305.47 410.004 306.467 406.455 308.463C402.886 310.458 399.939 313.171 397.633 316.585C395.286 320.035 393.743 323.888 392.982 328.156Z" fill="white"/>
<path d="M108.144 268.236C108.545 268.475 108.946 268.695 109.348 268.934C110.029 263.587 111.754 258.538 114.521 253.889C115.022 253.051 115.563 252.233 116.105 251.434C112.856 249.06 110.17 246.087 108.104 242.395C105.758 238.185 104.575 233.456 104.575 228.248C104.575 223.2 105.698 218.551 107.984 214.28C110.25 210.01 113.338 206.578 117.247 204.004C121.157 201.43 125.528 200.133 130.361 200.133C135.133 200.133 139.464 201.41 143.333 203.964C147.223 206.518 150.331 209.93 152.657 214.201C154.983 218.471 156.146 223.16 156.146 228.268C156.146 230.363 155.904 232.359 155.504 234.334C158.251 234.813 160.958 235.551 163.604 236.668C163.885 236.788 164.145 236.928 164.426 237.048C164.668 237.148 164.928 237.207 165.168 237.307C167.815 238.424 170.322 239.841 172.688 241.517C173.911 237.307 174.532 232.897 174.532 228.248C174.532 219.688 172.547 211.906 168.577 204.862C164.607 197.838 159.274 192.231 152.597 188.081C145.921 183.931 138.501 181.835 130.381 181.835C124.325 181.835 118.611 183.033 113.257 185.447C107.904 187.842 103.212 191.174 99.1617 195.424C95.1316 199.674 91.9636 204.603 89.6578 210.19C87.372 215.777 86.209 221.803 86.209 228.248C86.209 236.748 88.1941 244.49 92.1641 251.494C96.1342 258.498 101.468 264.085 108.144 268.236Z" fill="white"/>
</svg>
