<svg width="133" height="27" viewBox="0 0 133 27" fill="none" xmlns="http://www.w3.org/2000/svg">
<path fill-rule="evenodd" clip-rule="evenodd" d="M15.3926 26.5286C13.8337 26.5286 12.4095 26.1293 11.1277 25.3263C9.84587 24.5237 8.82198 23.4523 8.05985 22.1043C7.29768 20.7561 6.91661 19.2658 6.91661 17.6298C6.91661 16.3893 7.13603 15.2294 7.57869 14.154C8.02135 13.0787 8.62568 12.13 9.40322 11.312C10.1769 10.4939 11.0776 9.85636 12.1092 9.39165C13.137 8.93078 14.234 8.6965 15.3965 8.6965C16.9554 8.6965 18.3757 9.09592 19.6614 9.89862C20.9431 10.6975 21.9672 11.7767 22.7294 13.1286C23.4913 14.4805 23.8725 15.9822 23.8725 17.6298C23.8725 18.8588 23.6531 20.0111 23.2104 21.0825C22.7678 22.1542 22.1634 23.0989 21.386 23.917C20.612 24.7351 19.7116 25.3763 18.6915 25.8372C17.6674 26.2942 16.5704 26.5286 15.3926 26.5286ZM15.3926 23.0068C16.3318 23.0068 17.1708 22.7572 17.9178 22.2615C18.6645 21.7661 19.2535 21.1095 19.6883 20.2913C20.1232 19.4732 20.3427 18.5862 20.3427 17.626C20.3427 16.6466 20.1195 15.7441 19.6728 14.9183C19.2265 14.0964 18.6298 13.4397 17.8831 12.9481C17.1364 12.4565 16.3048 12.2107 15.3926 12.2107C14.465 12.2107 13.6258 12.4603 12.8752 12.9558C12.1246 13.4512 11.528 14.1118 11.0969 14.9337C10.6619 15.7556 10.4425 16.6543 10.4425 17.6221C10.4425 18.6247 10.6696 19.5349 11.12 20.3453C11.5703 21.1557 12.1747 21.8008 12.9253 22.2807C13.6759 22.7609 14.4996 23.0068 15.3926 23.0068ZM26.5825 9.16896V19.7423C26.5825 20.9942 26.8825 22.1273 27.4947 23.1565C28.1066 24.1858 28.9264 25.0002 29.9543 25.6106C30.9821 26.2214 32.1252 26.5249 33.38 26.5249C34.3656 26.5249 35.2856 26.3252 36.1439 25.9179C37.0022 25.5108 37.7182 24.9577 38.2956 24.2589L38.3108 26.0871L41.8369 26.4442L41.8215 8.9078L38.2956 9.16896V18.882C38.2956 19.6347 38.1109 20.326 37.7451 20.9442C37.3794 21.5627 36.8869 22.0581 36.271 22.423C35.6551 22.7879 34.9698 22.9723 34.2116 22.9723C33.4649 22.9723 32.7836 22.7879 32.1599 22.423C31.5363 22.0581 31.0397 21.5664 30.6663 20.9442C30.293 20.326 30.1083 19.6384 30.1083 18.882V8.9078L26.5825 9.16896ZM58.7816 0.711838L62.3074 0.446837V26.448L58.7816 26.0868V23.602C58.2274 24.4815 57.5036 25.1884 56.6106 25.7259C55.7176 26.2598 54.6706 26.5286 53.4735 26.5286C52.2417 26.5286 51.0871 26.2982 50.0131 25.8335C48.9391 25.3725 47.9921 24.7311 47.1723 23.9133C46.3524 23.0951 45.7096 22.1502 45.2477 21.0788C44.7859 20.0073 44.5509 18.8588 44.5509 17.626C44.5509 16.397 44.7819 15.2448 45.2477 14.1656C45.7096 13.0902 46.3524 12.1416 47.1723 11.3235C47.9921 10.5055 48.9391 9.86793 50.0131 9.40321C51.0871 8.94234 52.238 8.70806 53.4735 8.70806C54.6706 8.70806 55.7176 8.9769 56.6106 9.51075C57.5036 10.0446 58.2274 10.7474 58.7816 11.6154V0.711838ZM53.5082 23.1258C54.5013 23.1258 55.3711 22.88 56.1178 22.3883C56.8648 21.8969 57.4419 21.2363 57.8539 20.3989C58.2658 19.5656 58.4738 18.6399 58.4738 17.626C58.4738 16.6006 58.2658 15.6711 57.8461 14.8339C57.4267 14.0005 56.8493 13.336 56.1103 12.8444C55.3711 12.3528 54.5013 12.107 53.5082 12.107C52.5266 12.107 51.6298 12.3567 50.8215 12.8521C50.0131 13.3475 49.3702 14.012 48.8892 14.8492C48.4078 15.6826 48.1691 16.6082 48.1691 17.6222C48.1691 18.6476 48.4156 19.5771 48.9084 20.4067C49.4009 21.2363 50.0515 21.8969 50.8599 22.3846C51.6683 22.8722 52.5458 23.1258 53.5082 23.1258ZM71.4566 9.25344V5.33215C71.4566 4.91351 71.6069 4.55633 71.9032 4.26829C72.2036 3.97257 72.5613 3.82661 72.981 3.82661C73.2082 3.82661 73.4313 3.88037 73.6508 3.98792C73.8702 4.09546 74.0435 4.24907 74.1666 4.45263L76.6915 1.96775C76.1835 1.40318 75.606 0.988377 74.9635 0.715686C74.3206 0.443024 73.6585 0.308594 72.981 0.308594C72.0418 0.308594 71.191 0.53519 70.429 0.98453C69.6669 1.43774 69.0587 2.04454 68.6083 2.80501C68.158 3.56545 67.9308 4.40654 67.9308 5.33215V9.50691L65.9138 9.65671V11.6346L67.9308 11.842V26.0716L71.4566 26.448V12.203L76.2374 12.6908V8.90393L71.4566 9.25344ZM92.2311 9.1689L92.3852 11.673C91.7615 10.805 90.9801 10.0906 90.0372 9.53376C89.094 8.97688 88.0048 8.6965 86.773 8.6965C85.5642 8.6965 84.4288 8.92309 83.374 9.38011C82.3195 9.83717 81.3877 10.467 80.5834 11.2659C79.779 12.0647 79.1554 12.998 78.701 14.0657C78.2506 15.1296 78.0237 16.2664 78.0237 17.4762C78.0237 18.7282 78.2546 19.8998 78.7202 20.9864C79.1823 22.0733 79.8327 23.0375 80.6603 23.8708C81.4919 24.7044 82.454 25.3573 83.5513 25.8258C84.6482 26.2942 85.8183 26.5286 87.0616 26.5286C88.2165 26.5286 89.2133 26.2635 90.0639 25.7337C90.9147 25.2036 91.5845 24.5045 92.0811 23.6367L92.2156 26.0908L95.761 26.448V8.91156L92.2311 9.1689ZM91.3226 20.4026C90.911 21.2363 90.3295 21.9006 89.5868 22.3923C88.8399 22.8837 87.9701 23.1296 86.977 23.1296C86.0145 23.1296 85.1333 22.8837 84.3249 22.3923C83.5166 21.9006 82.8659 21.24 82.3734 20.4144C81.8806 19.5848 81.6342 18.6591 81.6342 17.6298C81.6342 16.6159 81.8728 15.6903 82.3464 14.8569C82.8198 14.0235 83.4664 13.3552 84.2787 12.8598C85.0909 12.3643 85.9916 12.1147 86.9732 12.1147C87.9661 12.1147 88.8361 12.3605 89.5751 12.8521C90.3143 13.3437 90.8955 14.0042 91.3112 14.8415C91.7308 15.6749 91.9385 16.6082 91.9385 17.6337C91.9425 18.6439 91.7346 19.5693 91.3226 20.4026ZM110.558 21.2824L114.365 21.6588C113.864 23.4293 112.086 24.8542 110.788 25.5607C109.607 26.2061 108.329 26.5249 106.947 26.5249C105.388 26.5249 103.964 26.1252 102.682 25.3226C101.4 24.52 100.376 23.4485 99.6141 22.1003C98.8519 20.7523 98.4709 19.2621 98.4709 17.626C98.4709 16.3855 98.6904 15.2256 99.133 14.1503C99.5757 13.0749 100.18 12.1262 100.957 11.3082C101.731 10.4901 102.632 9.85258 103.663 9.38786C104.691 8.92699 105.788 8.69271 106.951 8.69271C108.329 8.69271 109.622 8.99228 110.792 9.65671C112.074 10.3826 113.772 11.6078 114.368 13.674L110.561 13.9544C110.088 13.3898 109.534 12.9597 108.898 12.6601C108.267 12.3605 107.617 12.2107 106.947 12.2107C106.019 12.2107 105.18 12.4604 104.43 12.9635C103.679 13.4666 103.082 14.1234 102.651 14.9414C102.216 15.7595 101.997 16.6544 101.997 17.6222C101.997 18.5825 102.216 19.4695 102.659 20.2876C103.098 21.1057 103.694 21.7624 104.449 22.2578C105.199 22.7532 106.035 23.003 106.951 23.003C107.651 23.003 108.317 22.8456 108.952 22.5306C109.58 22.2193 110.119 21.8008 110.558 21.2824ZM120.296 25.3263C121.578 26.1293 123.002 26.5286 124.561 26.5286C126.258 26.5286 127.791 26.0524 129.153 25.0923C130.519 24.1396 131.37 23.141 132.113 21.6511L128.179 21.2515C128.163 21.2704 128.146 21.2899 128.128 21.31C127.896 21.5782 127.564 21.9615 126.909 22.3616C126.201 22.7879 125.419 23.0028 124.561 23.0028C123.745 22.9913 123.01 22.8071 122.348 22.446C121.686 22.0888 121.143 21.5934 120.719 20.9675C120.296 20.3413 120.011 19.6425 119.865 18.8628H132.937C133.083 17.4877 132.975 16.1896 132.614 14.9644C132.252 13.7392 131.69 12.6562 130.92 11.7152C130.154 10.7743 129.226 10.033 128.141 9.49919C127.055 8.96534 125.866 8.6965 124.565 8.6965C123.402 8.6965 122.305 8.93078 121.278 9.39165C120.246 9.85636 119.345 10.4939 118.572 11.312C117.794 12.13 117.19 13.0787 116.747 14.154C116.304 15.2294 116.085 16.3893 116.085 17.6298C116.085 19.2658 116.466 20.7561 117.228 22.1043C117.99 23.4523 119.014 24.5237 120.296 25.3263ZM129.38 16.1742H119.749C119.896 15.3523 120.192 14.6111 120.643 13.9466C121.085 13.2899 121.651 12.7676 122.336 12.3835C123.017 11.9995 123.764 11.8074 124.565 11.8074C125.381 11.8074 126.128 12.0033 126.813 12.3912C127.498 12.7829 128.068 13.3053 128.526 13.9659C128.98 14.6265 129.268 15.3639 129.38 16.1742Z" fill="white"/>
<path d="M3.52591 0.461609L0 0.720014V26.0868L3.52591 26.4442V0.461609Z" fill="white"/>
</svg>
