<svg width="133" height="28" viewBox="0 0 133 28" fill="none" xmlns="http://www.w3.org/2000/svg">
<path fill-rule="evenodd" clip-rule="evenodd" d="M15.3926 27.11C13.8337 27.11 12.4095 26.7107 11.1277 25.9078C9.84587 25.1051 8.82198 24.0337 8.05985 22.6857C7.29768 21.3375 6.91661 19.8472 6.91661 18.2113C6.91661 16.9707 7.13603 15.8108 7.57869 14.7355C8.02135 13.6601 8.62568 12.7114 9.40322 11.8934C10.1769 11.0753 11.0776 10.4378 12.1092 9.97306C13.137 9.51219 14.234 9.27791 15.3965 9.27791C16.9554 9.27791 18.3757 9.67734 19.6614 10.48C20.9431 11.2789 21.9672 12.3581 22.7294 13.71C23.4913 15.0619 23.8725 16.5636 23.8725 18.2113C23.8725 19.4402 23.6531 20.5925 23.2104 21.6639C22.7678 22.7356 22.1634 23.6803 21.386 24.4984C20.612 25.3165 19.7116 25.9577 18.6915 26.4187C17.6674 26.8756 16.5704 27.11 15.3926 27.11ZM15.3926 23.5882C16.3318 23.5882 17.1708 23.3386 17.9178 22.8429C18.6645 22.3475 19.2535 21.6909 19.6883 20.8728C20.1232 20.0546 20.3427 19.1676 20.3427 18.2074C20.3427 17.228 20.1195 16.3255 19.6728 15.4997C19.2265 14.6779 18.6298 14.0211 17.8831 13.5295C17.1364 13.0379 16.3048 12.7921 15.3926 12.7921C14.465 12.7921 13.6258 13.0417 12.8752 13.5372C12.1246 14.0326 11.528 14.6932 11.0969 15.5151C10.6619 16.337 10.4425 17.2357 10.4425 18.2036C10.4425 19.2061 10.6696 20.1163 11.12 20.9267C11.5703 21.7371 12.1747 22.3822 12.9253 22.8621C13.6759 23.3423 14.4996 23.5882 15.3926 23.5882ZM26.5825 9.75037V20.3237C26.5825 21.5756 26.8825 22.7087 27.4947 23.7379C28.1066 24.7672 28.9264 25.5816 29.9543 26.192C30.9821 26.8028 32.1252 27.1063 33.38 27.1063C34.3656 27.1063 35.2856 26.9066 36.1439 26.4993C37.0022 26.0922 37.7182 25.5391 38.2956 24.8403L38.3108 26.6685L41.8369 27.0257L41.8215 9.48921L38.2956 9.75037V19.4634C38.2956 20.2161 38.1109 20.9075 37.7451 21.5256C37.3794 22.1441 36.8869 22.6395 36.271 23.0044C35.6551 23.3693 34.9698 23.5538 34.2116 23.5538C33.4649 23.5538 32.7836 23.3693 32.1599 23.0044C31.5363 22.6395 31.0397 22.1479 30.6663 21.5256C30.293 20.9075 30.1083 20.2199 30.1083 19.4634V9.48921L26.5825 9.75037ZM58.7816 1.29325L62.3074 1.02825V27.0294L58.7816 26.6682V24.1834C58.2274 25.0629 57.5036 25.7698 56.6106 26.3074C55.7176 26.8412 54.6706 27.11 53.4735 27.11C52.2417 27.11 51.0871 26.8796 50.0131 26.4149C48.9391 25.9539 47.9921 25.3125 47.1723 24.4947C46.3524 23.6765 45.7096 22.7316 45.2477 21.6602C44.7859 20.5888 44.5509 19.4402 44.5509 18.2074C44.5509 16.9784 44.7819 15.8262 45.2477 14.747C45.7096 13.6716 46.3524 12.723 47.1723 11.9049C47.9921 11.0869 48.9391 10.4493 50.0131 9.98462C51.0871 9.52375 52.238 9.28947 53.4735 9.28947C54.6706 9.28947 55.7176 9.55831 56.6106 10.0922C57.5036 10.626 58.2274 11.3288 58.7816 12.1968V1.29325ZM53.5082 23.7072C54.5013 23.7072 55.3711 23.4614 56.1178 22.9697C56.8648 22.4783 57.4419 21.8177 57.8539 20.9803C58.2658 20.147 58.4738 19.2213 58.4738 18.2074C58.4738 17.182 58.2658 16.2526 57.8461 15.4153C57.4267 14.5819 56.8493 13.9174 56.1103 13.4258C55.3711 12.9342 54.5013 12.6884 53.5082 12.6884C52.5266 12.6884 51.6298 12.9381 50.8215 13.4335C50.0131 13.9289 49.3702 14.5934 48.8892 15.4306C48.4078 16.2641 48.1691 17.1896 48.1691 18.2036C48.1691 19.229 48.4156 20.1585 48.9084 20.9881C49.4009 21.8177 50.0515 22.4783 50.8599 22.966C51.6683 23.4536 52.5458 23.7072 53.5082 23.7072ZM71.4566 9.83485V5.91356C71.4566 5.49492 71.6069 5.13774 71.9032 4.8497C72.2036 4.55398 72.5613 4.40802 72.981 4.40802C73.2082 4.40802 73.4313 4.46178 73.6508 4.56933C73.8702 4.67687 74.0435 4.83049 74.1666 5.03404L76.6915 2.54916C76.1835 1.98459 75.606 1.56979 74.9635 1.2971C74.3206 1.02444 73.6585 0.890005 72.981 0.890005C72.0418 0.890005 71.191 1.1166 70.429 1.56594C69.6669 2.01915 69.0587 2.62595 68.6083 3.38642C68.158 4.14686 67.9308 4.98795 67.9308 5.91356V10.0883L65.9138 10.2381V12.216L67.9308 12.4234V26.653L71.4566 27.0294V12.7845L76.2374 13.2722V9.48534L71.4566 9.83485ZM92.2311 9.75032L92.3852 12.2544C91.7615 11.3864 90.9801 10.6721 90.0372 10.1152C89.094 9.55829 88.0048 9.27791 86.773 9.27791C85.5642 9.27791 84.4288 9.5045 83.374 9.96153C82.3195 10.4186 81.3877 11.0485 80.5834 11.8473C79.779 12.6462 79.1554 13.5794 78.701 14.6471C78.2506 15.711 78.0237 16.8478 78.0237 18.0576C78.0237 19.3096 78.2546 20.4812 78.7202 21.5678C79.1823 22.6547 79.8327 23.6189 80.6603 24.4522C81.4919 25.2858 82.454 25.9387 83.5513 26.4072C84.6482 26.8756 85.8183 27.11 87.0616 27.11C88.2165 27.11 89.2133 26.8449 90.0639 26.3151C90.9147 25.785 91.5845 25.0859 92.0811 24.2181L92.2156 26.6722L95.761 27.0294V9.49297L92.2311 9.75032ZM91.3226 20.9841C90.911 21.8177 90.3295 22.4821 89.5868 22.9737C88.8399 23.4651 87.9701 23.711 86.977 23.711C86.0145 23.711 85.1333 23.4651 84.3249 22.9737C83.5166 22.4821 82.8659 21.8214 82.3734 20.9958C81.8806 20.1662 81.6342 19.2405 81.6342 18.2113C81.6342 17.1973 81.8728 16.2717 82.3464 15.4383C82.8198 14.6049 83.4664 13.9366 84.2787 13.4412C85.0909 12.9457 85.9916 12.6961 86.9732 12.6961C87.9661 12.6961 88.8361 12.9419 89.5751 13.4335C90.3143 13.9251 90.8955 14.5857 91.3112 15.4229C91.7308 16.2563 91.9385 17.1896 91.9385 18.2151C91.9425 19.2253 91.7346 20.1507 91.3226 20.9841ZM110.558 21.8639L114.365 22.2402C113.864 24.0107 112.086 25.4356 110.788 26.1421C109.607 26.7876 108.329 27.1063 106.947 27.1063C105.388 27.1063 103.964 26.7067 102.682 25.904C101.4 25.1014 100.376 24.03 99.6141 22.6817C98.8519 21.3337 98.4709 19.8435 98.4709 18.2075C98.4709 16.9669 98.6904 15.8071 99.133 14.7317C99.5757 13.6563 100.18 12.7077 100.957 11.8896C101.731 11.0715 102.632 10.434 103.663 9.96928C104.691 9.5084 105.788 9.27412 106.951 9.27412C108.329 9.27412 109.622 9.57369 110.792 10.2381C112.074 10.964 113.772 12.1892 114.368 14.2554L110.561 14.5358C110.088 13.9712 109.534 13.5411 108.898 13.2415C108.267 12.9419 107.617 12.7921 106.947 12.7921C106.019 12.7921 105.18 13.0418 104.43 13.5449C103.679 14.048 103.082 14.7048 102.651 15.5228C102.216 16.3409 101.997 17.2358 101.997 18.2036C101.997 19.1639 102.216 20.0509 102.659 20.869C103.098 21.6872 103.694 22.3438 104.449 22.8392C105.199 23.3346 106.035 23.5845 106.951 23.5845C107.651 23.5845 108.317 23.427 108.952 23.112C109.58 22.8008 110.119 22.3822 110.558 21.8639ZM120.296 25.9078C121.578 26.7107 123.002 27.11 124.561 27.11C126.258 27.11 127.791 26.6338 129.153 25.6737C130.519 24.721 131.37 23.7224 132.113 22.2325L128.179 21.8329C128.163 21.8518 128.146 21.8713 128.128 21.8914C127.896 22.1596 127.564 22.5429 126.909 22.943C126.201 23.3693 125.419 23.5842 124.561 23.5842C123.745 23.5727 123.01 23.3885 122.348 23.0274C121.686 22.6702 121.143 22.1748 120.719 21.5489C120.296 20.9227 120.011 20.2239 119.865 19.4442H132.937C133.083 18.0691 132.975 16.771 132.614 15.5458C132.252 14.3207 131.69 13.2376 130.92 12.2966C130.154 11.3557 129.226 10.6145 128.141 10.0806C127.055 9.54675 125.866 9.27791 124.565 9.27791C123.402 9.27791 122.305 9.51219 121.278 9.97306C120.246 10.4378 119.345 11.0753 118.572 11.8934C117.794 12.7114 117.19 13.6601 116.747 14.7355C116.304 15.8108 116.085 16.9707 116.085 18.2113C116.085 19.8472 116.466 21.3375 117.228 22.6857C117.99 24.0337 119.014 25.1051 120.296 25.9078ZM129.38 16.7556H119.749C119.896 15.9337 120.192 15.1925 120.643 14.5281C121.085 13.8713 121.651 13.349 122.336 12.9649C123.017 12.5809 123.764 12.3888 124.565 12.3888C125.381 12.3888 126.128 12.5847 126.813 12.9726C127.498 13.3643 128.068 13.8867 128.526 14.5473C128.98 15.2079 129.268 15.9453 129.38 16.7556Z" fill="#4F46E5"/>
<path d="M3.52591 1.04302L0 1.30143V26.6682L3.52591 27.0257V1.04302Z" fill="#4F46E5"/>
</svg>
